<svg xmlns="http://www.w3.org/2000/svg" width="81.153" height="92.274" viewBox="0 0 81.153 92.274">
    <defs>
        <style>
            .cls-1{fill:#fff}.cls-2{fill:#222221}.cls-3{fill:#e82147}
        </style>
    </defs>
    <g id="Avatar_masculino" transform="translate(-734.782 -1114.356)">
        <g id="Grupo_58" data-name="Grupo 58" transform="translate(734.782 1114.356)">
            <path id="Caminho_69" d="M386.36 240.426c2.855.712 5.466 3.091 5.611 6.03s-3.012 5.789-5.747 4.708a69.7 69.7 0 0 1-4.537 14.158 26.126 26.126 0 0 1-9.51 11.2 32.091 32.091 0 0 1-8.382 3.336 42.568 42.568 0 0 1-14.164 1.8 30.71 30.71 0 0 1-18.937-8.664 35.949 35.949 0 0 1-9.945-18.431 6.332 6.332 0 0 1-4.727-11.612 5.189 5.189 0 0 0 1.409-.952 3.663 3.663 0 0 0 .668-1.826c1.724-10.1 3.146-20.932 9.846-28.685 4.677-5.41 11.495-8.655 18.505-10.066s14.253-1.125 21.368-.4c4.258.432 8.708 1.1 12.139 3.662a18.863 18.863 0 0 1 5.22 6.884c1.222 2.409 2.731 4.808 2.828 7.527.258 7.273.286 14.226-1.645 21.331z" class="cls-1" data-name="Caminho 69" transform="translate(-312.068 -191.151)"/>
            <g id="Grupo_38" data-name="Grupo 38" transform="translate(5.542 10.554)">
                <path id="Caminho_70" d="M352.651 283.071a34.9 34.9 0 0 1-24.975-10.171 40.954 40.954 0 0 1-10.682-22.417c-.591-3.779-1.131-8.673-.045-12.981a62.347 62.347 0 0 0 1.208-6.86l.044-.318a49.488 49.488 0 0 1 2.2-10.4c2.332-6.422 6.305-11.536 11.192-14.394a27.185 27.185 0 0 1 6.808-2.728c8-2.126 17.071-1.924 27.722.62a42.007 42.007 0 0 1 10.634 3.825 19.616 19.616 0 0 1 8.181 8.113 25.1 25.1 0 0 1 2.206 9.992 66.912 66.912 0 0 1-.621 11.186c-.209 1.854-.419 3.712-.547 5.6-.873 12.783-2.482 24.971-12.468 33.611a31.8 31.8 0 0 1-20.857 7.322zm-2.589-79.489a42.884 42.884 0 0 0-11.091 1.381 24.92 24.92 0 0 0-6.253 2.5c-4.439 2.6-8.068 7.294-10.222 13.231a47.807 47.807 0 0 0-2.084 9.937l-.043.318a64.642 64.642 0 0 1-1.256 7.105c-.986 3.917-.472 8.521.087 12.091a38.736 38.736 0 0 0 10.08 21.21c11.137 11.51 31.124 12.778 42.764 2.715 9.338-8.076 10.864-19.783 11.7-32.077.132-1.921.344-3.814.556-5.7a64.006 64.006 0 0 0 .609-10.813 23.032 23.032 0 0 0-1.969-9.112 17.649 17.649 0 0 0-7.275-7.167 39.971 39.971 0 0 0-10.067-3.6 67.139 67.139 0 0 0-15.537-2.019z" class="cls-2" data-name="Caminho 70" transform="translate(-316.325 -201.352)"/>
            </g>
            <g id="Grupo_39" data-name="Grupo 39" transform="translate(72.83 49.588)">
                <path id="Caminho_71" d="M367.828 241.577a5.92 5.92 0 0 1-2.647-.618l1-2a3.713 3.713 0 0 0 3.921-.4 3.326 3.326 0 0 0 .971-3.659 6.594 6.594 0 0 0-1.8-2.209c-.718-.646-1.442-.865-1.558-.734l-1.629-1.526c1.1-1.172 2.979-.93 4.68.6a8.5 8.5 0 0 1 2.372 3.027 5.564 5.564 0 0 1-1.613 6.216 5.794 5.794 0 0 1-3.697 1.303z" class="cls-2" data-name="Caminho 71" transform="translate(-365.181 -229.694)"/>
            </g>
            <g id="Grupo_40" data-name="Grupo 40" transform="translate(0 50.991)">
                <path id="Caminho_72" d="M319.31 244a7.19 7.19 0 0 1-6.992-6.33 6.519 6.519 0 0 1 1.854-4.936 6.34 6.34 0 0 1 4.622-2.022l-.055 2.231a4.409 4.409 0 0 0-4.2 4.562 4.942 4.942 0 0 0 4.767 4.264h.109l.059 2.231z" class="cls-2" data-name="Caminho 72" transform="translate(-312.301 -230.712)"/>
            </g>
            <g id="Grupo_41" data-name="Grupo 41" transform="translate(3.125)">
                <path id="Caminho_73" d="M388.879 243.763c.085-.992.125-1.983.171-2.974 3.38-11.346 5.592-25.484-.634-34.541-6.36-9.253-23.775-12.513-36.075-12.559-11.237-.041-25.6 3.957-31.1 11.486-7.6 10.416-7.615 28.087-5.385 39.981a1.485 1.485 0 0 0 .6.953.746.746 0 0 0 .08-.005c2.694.1 2.416-1.638 2.337-3.942a19.853 19.853 0 0 1 .621-4.8c1.088-5.106 1.538-10.631 4.3-15.191 2.573-4.256 5.959-4.1 10.451-3.253a63.15 63.15 0 0 0 9.918.813c6.406.187 12.82.372 19.227.121 3.257-.127 6.51-.364 9.746-.773 4.316-.545 8.076-2.027 10.481 2.793 2.343 4.7 1.76 10.462 1.558 15.519-.039.978-.927 5.438-.023 5.954.285.161.65.216.841.481a2.029 2.029 0 0 1 .207.54 1.414 1.414 0 0 0 2.629-.089c.018-.125.03-.238.051-.383a.557.557 0 0 1-.001-.131z" class="cls-2" data-name="Caminho 73" transform="translate(-314.57 -193.689)"/>
            </g>
            <g id="Grupo_42" data-name="Grupo 42" transform="translate(19.652 40.95)">
                <path id="Caminho_74" d="M330.152 223.841a2.171 2.171 0 0 0-2.951.348 3.135 3.135 0 0 0-.629 2.074 2.891 2.891 0 0 0 2.518 2.789c1.717 0 2.4-2.4 2.076-3.774a2.4 2.4 0 0 0-1.014-1.437z" class="cls-2" data-name="Caminho 74" transform="translate(-326.57 -223.421)"/>
            </g>
            <g id="Grupo_43" data-name="Grupo 43" transform="translate(56.02 40.535)">
                <path id="Caminho_75" d="M357.456 224.138a2.824 2.824 0 0 0-.7-.651 2.388 2.388 0 0 0-1.921-.275c-2.631.766-2.217 4.435-.355 5.764a2.494 2.494 0 0 0 3.906-1.949 4.155 4.155 0 0 0-.45-2.088 4.462 4.462 0 0 0-.48-.801z" class="cls-2" data-name="Caminho 75" transform="translate(-352.976 -223.12)"/>
            </g>
            <g id="Grupo_44" data-name="Grupo 44" transform="translate(29.17 67.572)">
                <path id="Caminho_76" d="M358.105 243.371c-3.749-1.822-7.59 1.89-11.071.9-3.7-1.055-11.23-3.429-13.409 1.436a1.235 1.235 0 0 0-.026.938.879.879 0 0 0-.077.262c-.645 6.937 6.249 9.754 12.126 9.945 7.549.245 11.744-3.567 13.7-10.145a1.131 1.131 0 0 0 .368-1.054 1.275 1.275 0 0 0 .114-.722 1.387 1.387 0 0 0-1.725-1.56zm-10.217 3.943a1.135 1.135 0 0 0 1.3-.168c2.584-2 4.457-1.7 6.8-1.28-6.426 2.383-13.39 3.816-19.822.572 2.455-2.884 9.415-.308 11.723.876zm-.18 6.97c-4.881.645-12.058-.511-12.4-6.431 5.849 3.522 14.022 3.617 20.421.843a9.671 9.671 0 0 1-8.021 5.588z" class="cls-2" data-name="Caminho 76" transform="translate(-333.48 -242.751)"/>
            </g>
            <g id="Grupo_45" data-name="Grupo 45" transform="translate(33.446 40.127)">
                <path id="Caminho_77" d="M352.29 238.252c-1.482-.676-1.667 1.909-2.177 2.772a4.591 4.591 0 0 1-2.26 1.814c-1.789.731-4.473 1.341-6.218.216-3.691-2.379 1.2-6.111 2.249-8.063a16.187 16.187 0 0 0 1.235-11.733.615.615 0 0 0-1.176 0c-.527 2.559-.284 5.236-.983 7.76-.777 2.8-2.409 4.526-4.319 6.612-1.476 1.613-2.857 3.487-1.5 5.625 3.1 4.878 10.948 3.417 14.735.449a5.524 5.524 0 0 0 1.3-1.308c.816-1.272.612-3.458-.886-4.144z" class="cls-2" data-name="Caminho 77" transform="translate(-336.586 -222.824)"/>
            </g>
            <g id="Grupo_46" data-name="Grupo 46" transform="translate(52.453 33.348)">
                <path id="Caminho_78" d="M360.914 219.425c-2.4-2.529-7.384-1.441-10.119-.1-.861.423-.223 1.628.618 1.465a15.173 15.173 0 0 1 4.556-.168c1.4.165 2.7.879 4.119.8a1.182 1.182 0 0 0 .826-1.997z" class="cls-2" data-name="Caminho 78" transform="translate(-350.386 -217.902)"/>
            </g>
            <g id="Grupo_47" data-name="Grupo 47" transform="translate(17.699 33.709)">
                <path id="Caminho_79" d="M336.037 220.275a8.462 8.462 0 0 0-5.433-2.092c-1.774-.085-4.393.04-5.305 1.81a1.171 1.171 0 0 0 .687 1.691c1.317.456 2.613-.253 3.945-.391a7.862 7.862 0 0 1 4.754.734 1.121 1.121 0 0 0 1.352-1.752z" class="cls-2" data-name="Caminho 79" transform="translate(-325.152 -218.164)"/>
            </g>
            <g id="Grupo_48" data-name="Grupo 48" transform="translate(12.867 52.293)">
                <path id="Caminho_80" d="M330.853 231.664a8.574 8.574 0 0 0-4.505 1.248 7.73 7.73 0 0 0-3.637 2.712c-1.614 2.284-1.467 5.316.924 7 2.347 1.651 5.148 1.027 7.6-.028s4.962-2.786 4.837-5.8a5.459 5.459 0 0 0-5.219-5.132z" class="cls-3" data-name="Caminho 80" transform="translate(-321.643 -231.657)"/>
            </g>
            <g id="Grupo_49" data-name="Grupo 49" transform="translate(53.97 49.808)">
                <path id="Caminho_81" d="M357.066 230.035a4.278 4.278 0 0 0-5.017 2.02c-1.668 3.038.6 8.083 3.934 8.976.461.124.941.158 1.412.237.426.07.844.176 1.273.222a4.42 4.42 0 0 0 4.853-4.712c-.282-3.351-3.401-5.864-6.455-6.743z" class="cls-3" data-name="Caminho 81" transform="translate(-351.487 -229.853)"/>
            </g>
        </g>
    </g>
</svg>
