<svg xmlns="http://www.w3.org/2000/svg" width="80.565" height="86.779" viewBox="0 0 80.565 86.779">
    <defs>
        <style>
            .cls-1{fill:#fff}.cls-2{fill:#222221}.cls-3{fill:#e82147}
        </style>
    </defs>
    <g id="Avatar_feminino" transform="translate(-839.453 -1116.182)">
        <g id="Grupo_59" data-name="Grupo 59" transform="translate(839.453 1116.182)">
            <path id="Caminho_19" d="M195.693 143a10.674 10.674 0 0 1-16.575 2.8 32.967 32.967 0 0 1-15.01 7.721 20.511 20.511 0 0 1-7.713.376c-4.8-.8-8.876-3.866-12.734-6.839a13.911 13.911 0 0 1-5.686 9.065 7.5 7.5 0 0 1-3.8 1.5 7.9 7.9 0 0 1-4.892-1.752 21.6 21.6 0 0 1-7.375-10.442 52.629 52.629 0 0 1-2.428-12.72 78.1 78.1 0 0 1 3.787-32.993c3.589-10.439 12.258-18.7 22.346-22.889a15.7 15.7 0 0 1 3.95-1.18c2.618-.341 5.443.537 8-.29 2.207-.715 4.105-1.673 6.482-1.909a22.249 22.249 0 0 1 13.488 3.191c6.011 3.614 10.343 9.507 13.537 15.751a47.115 47.115 0 0 1 3.915 10.12 46.494 46.494 0 0 1 .894 4.8c.464 3.373.656 6.774 1.018 10.157.18 1.684.4 3.365.715 5.028a27.583 27.583 0 0 1 .893 4.461c.1 6.038-.475 12.709-3.876 17.881" class="cls-1" data-name="Caminho 19" transform="translate(-118.413 -72.093)"/>
            <g id="Grupo_2" data-name="Grupo 2" transform="translate(17.184 43.847)">
                <path id="Caminho_20" d="M156.66 147.791q-.809 0-1.61-.06a22.638 22.638 0 0 1-16.181-9.3c-6.9-9.2-6.718-16.042-5.7-29.418l1.967.151c-1.007 13.22-1.179 19.429 5.312 28.084a20.4 20.4 0 0 0 14.753 8.51c5.107.382 10.613-1.295 15.9-4.872a25.084 25.084 0 0 0 9.835-13.986c1.443-4.894 1.52-11.449 1.581-16.716l.024-1.864 1.973.03-.024 1.857c-.063 5.389-.141 12.095-1.662 17.251a27.024 27.024 0 0 1-10.62 15.061c-5.118 3.469-10.457 5.272-15.548 5.272z" class="cls-2" data-name="Caminho 20" transform="translate(-132.647 -108.324)"/>
            </g>
            <g id="Grupo_3" data-name="Grupo 3" transform="translate(38.109 42.843)">
                <path id="Caminho_21" d="M155.139 127.5c-.041.024-.085.029-.127.051l-.03-.055a2.147 2.147 0 1 1-1.456-4.008l.8-.153v-.81c.015-3.918-.153-7.831-.1-11.743 0-.259.007-.52.011-.779.011-.838.22-2.179-.8-2.459a1.064 1.064 0 0 0-1.382.764 3.138 3.138 0 0 0 0 1.083c.231 2.041.216 4.094.252 6.144.012.647.444 6.1.054 6.269a4.218 4.218 0 0 0-1.95 1.8 3.94 3.94 0 0 0 2.108 5.805 4.425 4.425 0 0 0 1.546.285 3.869 3.869 0 0 0 1.879-.474l-.061-.11a2.468 2.468 0 0 0 .3-.272.859.859 0 0 0-1.044-1.338z" class="cls-2" data-name="Caminho 21" transform="translate(-149.83 -107.499)"/>
            </g>
            <g id="Grupo_4" data-name="Grupo 4" transform="translate(24.815 46.362)">
                <path id="Caminho_22" d="M138.966 115.4c.174 0 .347-.012.521-.015a29.25 29.25 0 0 1 5.524-.567 6.4 6.4 0 0 0 .079-1.763c-.514-4.41-6.684-3.127-6.144 2.238.006.038.016.068.02.107z" class="cls-2" data-name="Caminho 22" transform="translate(-138.913 -110.389)"/>
            </g>
            <g id="Grupo_5" data-name="Grupo 5" transform="translate(52.443 46.365)">
                <path id="Caminho_23" d="M167.665 114.989a6.471 6.471 0 0 0 .1-1.936c-.485-4.162-6-3.248-6.166 1.381a66.74 66.74 0 0 0 6.066.555z" class="cls-2" data-name="Caminho 23" transform="translate(-161.601 -110.391)"/>
            </g>
            <g id="Grupo_6" data-name="Grupo 6" transform="translate(17.074 21.492)">
                <path id="Caminho_24" d="M133.595 114.642l-1.038-1.677a61.621 61.621 0 0 0 12.2-10.529 41.772 41.772 0 0 0 3.843-5.426c.457-.768.85-1.544 1.242-2.316A27.218 27.218 0 0 1 152 90.969l.726-1 .815.932c.929 1.059 1.794 2.116 2.647 3.156a40.632 40.632 0 0 0 8.115 8.158 90.182 90.182 0 0 0 13.377 7.392 23.715 23.715 0 0 0 7.544 2.457l-.224 1.958a25.481 25.481 0 0 1-8.166-2.634 91.993 91.993 0 0 1-13.669-7.561 42.175 42.175 0 0 1-8.507-8.523c-.576-.7-1.157-1.41-1.76-2.124-.469.774-.876 1.576-1.3 2.406-.413.811-.827 1.626-1.307 2.432a43.639 43.639 0 0 1-4.027 5.683 62.918 62.918 0 0 1-12.669 10.941z" class="cls-2" data-name="Caminho 24" transform="translate(-132.557 -89.966)"/>
            </g>
            <path id="Caminho_25" d="M193.727 96.375c-2.689-7.149-5.943-12.558-9.944-16.534-5.1-5.059-11.586-7.778-17.755-7.505a20.689 20.689 0 0 0-9.65 3.354c-4.994-1.83-11.231-.616-17.21 3.373-8.277 5.523-14.629 14.608-17.887 25.583-2.66 8.962-3.378 19.191-2.2 31.274 1.108 11.325 4.559 18.492 10.554 21.91a8.784 8.784 0 0 0 3.692 1.248c.166.012.331.018.5.018a8.646 8.646 0 0 0 4.248-1.237 12.771 12.771 0 0 0 4.755-4.81 12.984 12.984 0 0 0 1.3-3.226c.18-.716.619-2.467-.1-3.054a.436.436 0 0 0-.278-.078c-1.181-.009-1.256 1.363-1.426 2.2a10.992 10.992 0 0 1-5.219 7.251 6.517 6.517 0 0 1-3.627.969 6.907 6.907 0 0 1-2.864-.995c-5.4-3.079-8.527-9.747-9.568-20.39-1.157-11.822-.462-21.807 2.124-30.52 3.126-10.534 9.194-19.235 17.089-24.5 2.66-1.773 9.527-5.614 15.848-3l.48.2.436-.284a19.082 19.082 0 0 1 9.094-3.31c5.654-.252 11.569 2.263 16.272 6.933 3.8 3.773 6.9 8.949 9.49 15.829a82.439 82.439 0 0 1 4.7 38.362c-.449 3.862-1.4 8.615-4.8 11.1a8.161 8.161 0 0 1-8.031.8 14.27 14.27 0 0 1-2.8-1.841 2.462 2.462 0 0 0-.89-.471c-.717-.195-1.361.162-1.214 1 .129.736.9 1.063 1.448 1.449a16.942 16.942 0 0 0 2.622 1.655 10.046 10.046 0 0 0 10.027-.994c4.017-2.942 5.1-8.208 5.6-12.47a84.4 84.4 0 0 0-4.816-39.289z" class="cls-2" data-name="Caminho 25" transform="translate(-118.536 -72.318)"/>
            <g id="Grupo_7" data-name="Grupo 7" transform="translate(11.659 44.365)">
                <path id="Caminho_26" d="M133.053 118.6a4.658 4.658 0 0 1-3.84-2.021 5.238 5.238 0 0 1-.876-4.68c.627-2.017 2.35-4.116 6.985-2.673l-.409 1.939-.177-.055c-2.649-.822-3.957-.425-4.515 1.375a3.267 3.267 0 0 0 .628 2.994 2.707 2.707 0 0 0 2.795 1.075l.477 1.916a4.424 4.424 0 0 1-1.068.13z" class="cls-2" data-name="Caminho 26" transform="translate(-128.11 -108.749)"/>
            </g>
            <g id="Grupo_8" data-name="Grupo 8" transform="translate(68.232 43.363)">
                <path id="Caminho_27" d="M175.028 116.8l-.307-1.95c1.106-.173 3.018-.655 3.388-1.924a2.267 2.267 0 0 0-.767-2.159 4.52 4.52 0 0 0-2.207-.8l-.569-.112.407-1.93.531.1a6.089 6.089 0 0 1 3.174 1.286A4.189 4.189 0 0 1 180 113.48c-.352 1.213-1.5 2.774-4.972 3.32z" class="cls-2" data-name="Caminho 27" transform="translate(-174.566 -107.926)"/>
            </g>
            <g id="Grupo_9" data-name="Grupo 9" transform="translate(12.626 17.904)">
                <path id="Caminho_28" d="M133.868 87.2a30.8 30.8 0 0 0-2.915 3.424 8.541 8.541 0 0 0-2.041 3.562.4.4 0 0 0 .577.443 9.548 9.548 0 0 0 2.668-2.9c.922-1.241 1.9-2.434 2.752-3.729.42-.638-.509-1.311-1.041-.8z" class="cls-2" data-name="Caminho 28" transform="translate(-128.904 -87.02)"/>
            </g>
            <g id="Grupo_10" data-name="Grupo 10" transform="translate(18.778 23.193)">
                <path id="Caminho_29" d="M137.959 91.748a25.055 25.055 0 0 1-2.183 3.653c-.7.966-1.7 1.852-1.817 3.09a.506.506 0 0 0 .634.483c1.21-.268 1.936-1.527 2.567-2.5a26.068 26.068 0 0 0 2.076-3.975c.364-.857-.847-1.622-1.277-.751z" class="cls-2" data-name="Caminho 29" transform="translate(-133.956 -91.363)"/>
            </g>
            <g id="Grupo_11" data-name="Grupo 11" transform="translate(27.879 15.109)">
                <path id="Caminho_30" d="M143.629 85.162c-.284-.756-1.478-.46-1.234.34a9.38 9.38 0 0 1-.874 7.141.694.694 0 0 0 1.2.7 8.51 8.51 0 0 0 .908-8.181z" class="cls-2" data-name="Caminho 30" transform="translate(-141.43 -84.725)"/>
            </g>
            <g id="Grupo_12" data-name="Grupo 12" transform="translate(6.21 31.922)">
                <path id="Caminho_31" d="M127.627 98.7c-2.069 1.712-4.591 5.133-3.863 8.008a.584.584 0 0 0 1.056.139c.543-1.207.636-2.559 1.206-3.775a10.353 10.353 0 0 1 2.593-3.381c.681-.596-.307-1.555-.992-.991z" class="cls-2" data-name="Caminho 31" transform="translate(-123.636 -98.531)"/>
            </g>
            <g id="Grupo_13" data-name="Grupo 13" transform="translate(13.346 34.959)">
                <path id="Caminho_32" d="M132.085 101.326c-1.215 1.545-3.275 4.4-2.364 6.457a.652.652 0 0 0 1.016.13 6.646 6.646 0 0 0 1.219-2.574 13.024 13.024 0 0 1 1.629-2.854c.64-.866-.829-2.013-1.5-1.159z" class="cls-2" data-name="Caminho 32" transform="translate(-129.496 -101.025)"/>
            </g>
            <g id="Grupo_14" data-name="Grupo 14" transform="translate(5.272 57.264)">
                <path id="Caminho_33" d="M124.393 123.822a10.534 10.534 0 0 1 .015-3.63c.146-.852-1.154-1.221-1.307-.36-.413 2.331-.448 5.534 1.263 7.4.336.365.8-.037.748-.435-.14-1.008-.542-1.97-.719-2.975z" class="cls-2" data-name="Caminho 33" transform="translate(-122.865 -119.341)"/>
            </g>
            <g id="Grupo_15" data-name="Grupo 15" transform="translate(13.494 58.828)">
                <path id="Caminho_34" d="M131.535 121.125c-.465-1.041-2.266-.3-1.858.784.993 2.633.891 5.314.815 8.081a.582.582 0 0 0 1.076.291c1.773-2.85 1.286-6.206-.033-9.156z" class="cls-2" data-name="Caminho 34" transform="translate(-129.617 -120.626)"/>
            </g>
            <g id="Grupo_16" data-name="Grupo 16" transform="translate(11.232 72.617)">
                <path id="Caminho_35" d="M133.811 135.585a.709.709 0 0 0-.669-.509c-.782-.043-1.27.637-2.073.195-.89-.491-1.171-1.754-1.428-2.649a.956.956 0 0 0-1.843.508c.454 1.628 1.112 3.454 2.856 4.066 1.12.394 3.621.131 3.157-1.611z" class="cls-2" data-name="Caminho 35" transform="translate(-127.759 -131.949)"/>
            </g>
            <g id="Grupo_17" data-name="Grupo 17" transform="translate(67.843 62.248)">
                <path id="Caminho_36" d="M177.754 124.245c-.116-1.066-1.788-1.1-1.7 0a9.957 9.957 0 0 1-1.7 6.218.758.758 0 0 0 1.186.915 8.793 8.793 0 0 0 2.214-7.133z" class="cls-2" data-name="Caminho 36" transform="translate(-174.247 -123.434)"/>
            </g>
            <g id="Grupo_18" data-name="Grupo 18" transform="translate(73.494 58.908)">
                <path id="Caminho_37" d="M181.156 121.034c-.4-.71-1.679-.22-1.352.57 1 2.4.365 4.642-.814 6.844a.766.766 0 0 0 1.2.924c2.455-2.049 2.436-5.708.966-8.338z" class="cls-2" data-name="Caminho 37" transform="translate(-178.887 -120.691)"/>
            </g>
            <g id="Grupo_19" data-name="Grupo 19" transform="translate(58.166 30.961)">
                <path id="Caminho_38" d="M176.344 101.819c-1.284-.772-2.893-.891-4.3-1.4a18.672 18.672 0 0 1-4.7-2.563c-.621-.457-1.442.594-.83 1.078 2.36 1.872 6.532 4.637 9.717 3.746a.475.475 0 0 0 .113-.861z" class="cls-2" data-name="Caminho 38" transform="translate(-166.3 -97.742)"/>
            </g>
            <g id="Grupo_20" data-name="Grupo 20" transform="translate(68.373 27.168)">
                <path id="Caminho_39" d="M176.3 94.846c-.912-.727-2.224.524-1.308 1.308 2.27 1.944 4.422 4.164 3.611 7.425a.582.582 0 0 0 .966.561c3.191-3.27-.669-7.222-3.269-9.294z" class="cls-2" data-name="Caminho 39" transform="translate(-174.682 -94.627)"/>
            </g>
            <g id="Grupo_21" data-name="Grupo 21" transform="translate(43.237 22.255)">
                <path id="Caminho_40" d="M161.546 95.613c-.445-1.017-2.1-1.366-2.99-1.93a12.47 12.47 0 0 1-3.1-2.836c-.571-.718-1.831.24-1.282.99a14.439 14.439 0 0 0 3.305 3.3c.985.7 2.629 1.918 3.858 1.264a.594.594 0 0 0 .209-.788z" class="cls-2" data-name="Caminho 40" transform="translate(-154.041 -90.592)"/>
            </g>
            <g id="Grupo_22" data-name="Grupo 22" transform="translate(48.404 16.945)">
                <path id="Caminho_41" d="M165.42 91.751c-.787-.912-2.137-1.292-3.091-2.036a10.331 10.331 0 0 1-2.633-3.105c-.485-.859-1.771-.1-1.318.77a11.745 11.745 0 0 0 2.993 3.7c1.053.856 2.378 1.845 3.8 1.622.457-.071.498-.663.249-.951z" class="cls-2" data-name="Caminho 41" transform="translate(-158.284 -86.233)"/>
            </g>
            <g id="Grupo_23" data-name="Grupo 23" transform="translate(58.218 14.997)">
                <path id="Caminho_42" d="M170.539 89.119a10.3 10.3 0 0 0-2.785-4.256c-.776-.72-1.917.409-1.165 1.167a8.414 8.414 0 0 1 2.229 3.808c.3 1.154.063 2.5.669 3.542a.621.621 0 0 0 .968.124c.998-1.191.545-3.027.084-4.385z" class="cls-2" data-name="Caminho 42" transform="translate(-166.343 -84.633)"/>
            </g>
            <g id="Grupo_24" data-name="Grupo 24" transform="translate(47.898 8.395)">
                <path id="Caminho_43" d="M164.386 81.467c-.768-1.963-3.708-2.4-5.544-2.22-1.291.124-1.3 2.159 0 2.034a6.191 6.191 0 0 1 2.613.269 10.938 10.938 0 0 0 2.255.8.7.7 0 0 0 .676-.883z" class="cls-2" data-name="Caminho 43" transform="translate(-157.869 -79.212)"/>
            </g>
            <g id="Grupo_25" data-name="Grupo 25" transform="translate(35.995 8.569)">
                <path id="Caminho_44" d="M150.316 79.772a.59.59 0 0 0-1.129 0 43.807 43.807 0 0 0-.55 4.385 17.925 17.925 0 0 0-.531 4.037c.027.423.626.8.947.392 1.653-2.119 2.147-6.291 1.263-8.814z" class="cls-2" data-name="Caminho 44" transform="translate(-148.094 -79.354)"/>
            </g>
            <g id="Grupo_26" data-name="Grupo 26" transform="translate(52.612 51.843)">
                <path id="Caminho_45" d="M171.581 114.9a27.316 27.316 0 0 1-4.316 1.064 10.35 10.35 0 0 1-4.842-.924c-.519-.23-.977.531-.451.772 2.851 1.31 7.374 1.923 9.953-.32.285-.25-.025-.663-.344-.592z" class="cls-2" data-name="Caminho 45" transform="translate(-161.74 -114.89)"/>
            </g>
            <g id="Grupo_27" data-name="Grupo 27" transform="translate(21.744 52.079)">
                <path id="Caminho_46" d="M145.577 115.969c-1.352-.1-2.689.179-4.047.09a15.971 15.971 0 0 1-4.339-.943c-.666-.239-1.141.859-.487 1.156 2.639 1.2 6.418 2.1 9.126.63a.5.5 0 0 0-.253-.933z" class="cls-2" data-name="Caminho 46" transform="translate(-136.391 -115.083)"/>
            </g>
            <g id="Grupo_28" data-name="Grupo 28" transform="translate(33.037 68.131)">
                <path id="Caminho_47" d="M162.9 128.886c-3.041 1.834-5.389 3.624-9.163 3.154-2.988-.371-4.956-1.969-7.292-3.68-.459-.336-.952.3-.727.727 3.3 6.3 14.4 6.837 18.331.949.477-.71-.449-1.57-1.149-1.15z" class="cls-2" data-name="Caminho 47" transform="translate(-145.665 -128.265)"/>
            </g>
            <g id="Grupo_29" data-name="Grupo 29" transform="translate(52.544 41.346)">
                <path id="Caminho_48" d="M168.047 107.965c-.768-2-4.541-2.065-6.091-1.058-.457.3-.325 1.154.3 1.1a8.75 8.75 0 0 1 2.727 0c.841.192 1.511.848 2.366.868a.729.729 0 0 0 .698-.91z" class="cls-2" data-name="Caminho 48" transform="translate(-161.684 -106.27)"/>
            </g>
            <g id="Grupo_30" data-name="Grupo 30" transform="translate(25.047 41.758)">
                <path id="Caminho_49" d="M145.1 107.19a6.066 6.066 0 0 0-5.72.274.583.583 0 0 0 .291 1.076 11.681 11.681 0 0 0 2.39-.223 7.688 7.688 0 0 1 2.51.125c.716.17 1.263-.915.529-1.252z" class="cls-2" data-name="Caminho 49" transform="translate(-139.104 -106.609)"/>
            </g>
            <g id="Grupo_31" data-name="Grupo 31" transform="translate(50.949 56.306)">
                <path id="Caminho_50" d="M169.879 121.515a4.748 4.748 0 0 0-4.223-2.96 8.186 8.186 0 0 0-2.019.265 4.6 4.6 0 0 0-1.925.616 2.6 2.6 0 0 0-.241.181 2.186 2.186 0 0 0-.2.151 2.819 2.819 0 0 0 .094 4.207 6.335 6.335 0 0 0 5.3 1.092c1.659-.338 3.83-1.543 3.214-3.552z" class="cls-3" data-name="Caminho 50" transform="translate(-160.374 -118.555)"/>
            </g>
            <g id="Grupo_32" data-name="Grupo 32" transform="translate(24.12 55.757)">
                <path id="Caminho_51" d="M144.6 118.4a5.921 5.921 0 0 0-4.912.552 2.409 2.409 0 0 0-.76 3.724c.045.058.1.115.153.173.66 1.57 2.6 2.031 4.15 1.827 1.437-.189 3.9-.938 4.351-2.521.496-1.738-1.565-3.264-2.982-3.755z" class="cls-3" data-name="Caminho 51" transform="translate(-138.343 -118.103)"/>
            </g>
        </g>
    </g>
</svg>
