<svg xmlns="http://www.w3.org/2000/svg" width="62.109" height="62.11" viewBox="0 0 62.109 62.11">
    <defs>
        <style>
            .cls-1{fill:#e82147}
        </style>
    </defs>
    <g id="Cozinha_active" transform="translate(-283 -1133)">
        <g id="Grupo_56" data-name="Grupo 56" transform="translate(283 1133)">
            <path id="Caminho_52" d="M42.629 61.458a1.473 1.473 0 0 0-.384-1.253l-1-1.055a7.564 7.564 0 0 0-9.105-1.54l-6.732 3.544a1.456 1.456 0 0 0-.6-.527L18.56 57.65a1.474 1.474 0 0 0-1.98.731l-8.626 19.4a1.474 1.474 0 0 0 .712 1.928l6.247 2.977a1.474 1.474 0 0 0 1.144.052 1.29 1.29 0 0 0 .836-.664l.756-1.579h23.52a1.655 1.655 0 0 0 .678-.284l16.975-8.856a1.521 1.521 0 0 0 .793-1.268 1.5 1.5 0 0 0-.674-1.323l-2.987-1.93c-2.342-1.641-5.059-1.75-8.345-.307l-8.66 4.126-5.711-3.586 8.619-4.542a1.478 1.478 0 0 0 .772-1.067zM14.82 79.373l-3.587-1.709 7.427-16.705 3.588 1.709L15.4 78.073a1.435 1.435 0 0 0-.1.231zM29.706 65.6c-.029.013-.055.029-.083.044l-3.047 1.605a1.473 1.473 0 1 0 1.368 2.608l2.286-1.2 7.843 4.923a1.472 1.472 0 0 0 1.417.082l9.349-4.462c2.286-1 3.961-.991 5.477.069l.9.7-14.4 7.582H18.962l5.477-12.435 9.077-4.838a4.624 4.624 0 0 1 5.232.59z" class="cls-1" data-name="Caminho 52" transform="translate(-7.83 -20.716)"/>
            <path id="Caminho_53" d="M10.668 37.412H9.3a1.473 1.473 0 1 0 0 2.946h59.167a1.473 1.473 0 1 0 0-2.946H67.1a28.661 28.661 0 0 0-23.06-24.045v-.205a5.158 5.158 0 1 0-10.31 0v.2a28.662 28.662 0 0 0-23.062 24.05zm53.451 0H13.652a25.424 25.424 0 0 1 21.495-21.324 1.431 1.431 0 0 0 .211-.029 25.894 25.894 0 0 1 7.057 0 1.556 1.556 0 0 0 .2.028 25.43 25.43 0 0 1 21.504 21.325zM38.885 10.776a2.382 2.382 0 0 1 2.368 2.2c-.781-.063-1.57-.1-2.368-.1s-1.586.038-2.366.1a2.38 2.38 0 0 1 2.366-2.2z" class="cls-1" data-name="Caminho 53" transform="translate(-7.83 -7.83)"/>
        </g>
    </g>
</svg>
