<svg xmlns="http://www.w3.org/2000/svg" width="63.792" height="63.788" viewBox="0 0 63.792 63.788">
    <defs>
        <style>
            .cls-1{fill:#e82147}
        </style>
    </defs>
    <g id="Drinks_active" transform="translate(-487 -1132)">
        <g id="Grupo_55" data-name="Grupo 55" transform="translate(487 1132)">
            <path id="Caminho_54" d="M137.449 56.2v-9.49a1.306 1.306 0 0 0-1.3-1.3h-25.1l-6.349-9.82a1.3 1.3 0 0 0-2.19 1.41l5.441 8.409H102.3a1.306 1.306 0 0 0-1.3 1.3v9.112c0 .286.013.586.026.885a18.176 18.176 0 0 0 16.9 17.287v22.181h-6.509a1.3 1.3 0 0 0 0 2.6h15.621a1.3 1.3 0 0 0 0-2.6h-6.509V73.992a18.222 18.222 0 0 0 16.936-17.561 1.415 1.415 0 0 0-.016-.231zm-33.859-8.188h6.04l4.27 6.6a13.534 13.534 0 0 0-4.27-.651 21.254 21.254 0 0 0-4.426.521h-.013c-.247.052-.495.117-.755.169-.052.013-.1.026-.143.039-.2.052-.391.1-.573.156a1.637 1.637 0 0 1-.13.039zm15.635 23.428a15.6 15.6 0 0 1-15.53-13.864 20.89 20.89 0 0 1 5.949-1 9.777 9.777 0 0 1 4.908 1.159c.521.3 1 .651 1.523 1.015a9.03 9.03 0 0 0 5.168 2.148 3.171 3.171 0 0 0 .351.013 9.178 9.178 0 0 0 5.363-2.018 11.71 11.71 0 0 1 2.955-1.575 7.458 7.458 0 0 1 2.239-.338h.039a3.057 3.057 0 0 1 .338.013h.117a2.742 2.742 0 0 1 .325.026h.052a11.186 11.186 0 0 1 1.757.325 15.564 15.564 0 0 1-15.554 14.096zm15.634-16.767a12.422 12.422 0 0 0-2.695-.312 9.783 9.783 0 0 0-3.033.456 14.169 14.169 0 0 0-3.606 1.888c-1.393.924-2.486 1.653-4.153 1.575a5.076 5.076 0 0 1-2.512-.794l-6.131-9.477h22.13z" class="cls-1" data-name="Caminho 54" transform="translate(-86.678 -34.99)"/>
            <path id="Caminho_55" d="M361.124 335.65a1.313 1.313 0 0 0-1.432-.612l-7.355 1.744-7.355-1.744a1.3 1.3 0 0 0-1.432.612 1.316 1.316 0 0 0 .182 1.549l5.194 5.493 2.161 7.251a1.3 1.3 0 0 0 2.5-.013l2.161-7.238 5.194-5.493a1.318 1.318 0 0 0 .182-1.549zm-7.5 5.48a1.166 1.166 0 0 0-.3.521l-1 3.372-1-3.372a1.165 1.165 0 0 0-.3-.521l-2.408-2.551 3.4.807a1.167 1.167 0 0 0 .6 0l3.424-.807z" class="cls-1" data-name="Caminho 55" transform="translate(-297.504 -295.945)"/>
            <path id="Caminho_56" d="M7.292 285.17l-7.355 1.744-7.355-1.744a1.313 1.313 0 0 0-1.432.612 1.315 1.315 0 0 0 .182 1.549l5.194 5.493 2.161 7.238a1.313 1.313 0 0 0 1.25.924 1.308 1.308 0 0 0 1.25-.937l2.161-7.238 5.194-5.48a1.3 1.3 0 0 0-1.25-2.161zm-6.066 6.08a1.165 1.165 0 0 0-.3.521l-1 3.372-1-3.372a1.165 1.165 0 0 0-.3-.521l-2.412-2.55 3.4.807a1.167 1.167 0 0 0 .6 0l3.424-.807z" class="cls-1" data-name="Caminho 56" transform="translate(9.022 -252.573)"/>
        </g>
    </g>
</svg>
