<svg xmlns="http://www.w3.org/2000/svg" width="275.012" height="273.638" viewBox="0 0 275.012 273.638">
    <defs>
        <style>
            .cls-1{fill:#fff}
        </style>
    </defs>
    <g id="Elemento_2" transform="translate(-52.022 -9.168)">
        <path id="Fill_351" d="M31.95 25.67a10.136 10.136 0 0 0-3.527 6.744c-.234 1.486-1.59 1.689-2.611 1.95a4.381 4.381 0 0 0-2.412.985 1.689 1.689 0 0 1-1.6.132 24.135 24.135 0 0 1-3.707-2.313c-4.025-3.542-6.975-7.922-9.737-12.391A113.25 113.25 0 0 1 .428 6.76c-.671-1.539-.7-1.527.991-2.722C2.792 6.65 4.073 9.3 5.555 11.835c1.176 2.01 2.6 3.874 4.031 5.978a1.948 1.948 0 0 0-.194-2.144 80.5 80.5 0 0 1-7.7-13.145l1.169-.763.671.58V.624L6.674 0C7.611.437 8.056 2.094 9.6 2.3c-.05 1.677 1.416 2.512 2.152 3.737A39.3 39.3 0 0 0 14.778 10c.99-.132 1.73-.27 2.477-.322 2.622-.184 2.559-.1 4.192 1.339 1.815 1.6 3.057 3.84 5.4 4.857a.64.64 0 0 1 .327.454c.073 1.685 1.016 2.3 2.6 2.705 1.327.344 1.7 1.742 1.766 3.118.048 1.055.242 2.1.415 3.518" class="cls-1" data-name="Fill 351" transform="translate(263.895 200.186)"/>
        <path id="Fill_353" d="M1.675 1.761C3.552 2.7 3.552 2.7 4.562.733c1.284-.44 2.836.446 4-.733a37.845 37.845 0 0 0 3.922.951c2.141.294 3.246 1.95 4.455 3.344.821.947 1.68 1.9 2.43 2.925.877 1.2 1.926 2.279 2.807 3.479.8 1.087 1.48 2.262 2.189 3.413a2.009 2.009 0 0 1 .42 1.045 2.5 2.5 0 0 0 .87 2.139c1.223 1.233 1.127 3.042 1.552 4.581a13.635 13.635 0 0 1 .041 4.6c-.048.586-.125 1.835-1.414.914-.091-.066-.541.414-.851.6-.327.191-.885.555-1 .454-1.36-1.194-1.691-.341-2.313.84-.915 1.738-1.473 1.61-3.93 1.171-1.495-.268-3.08-.314-3.955-1.612-2.367-3.508-4.791-6.991-5.119-11.475a7 7 0 0 0-2.115-4.964C5.268 11.293 4.421 9.7 2.677 9.081c-.526-.187-.91-.814-1.319-1.276A5.123 5.123 0 0 1 0 4.338C-.023 2.9 1.114 2.577 1.675 1.761" class="cls-1" data-name="Fill 353" transform="translate(60.088 28.443)"/>
        <path id="Fill_355" d="M14.09 28.679c-1.532-1.532-2.819-3.033-4.318-4.277-4.3-3.569-6.343-8.618-8.915-13.317C-.3 8.974.032 6.6.082 4.321c.009-.4.556-.781.876-1.2L2.4 5.983V1.757A10.6 10.6 0 0 0 4.8.516 2.3 2.3 0 0 1 7.091.141a9.122 9.122 0 0 1 2.3 1.386c-.473 2.218.4 4.075 1.481 6.01.968-.262 2.111.426 3.081-.569a1.246 1.246 0 0 1 1.17-.053C17.5 8.344 20.409 9.1 21.61 12.036c.216.529.455 1.212.889 1.447.654.354.067 1.46 1.19 1.5.924.035.334.977.5 1.49a14.109 14.109 0 0 1 .6 1.909 11.107 11.107 0 0 1 .022 1.846 18.882 18.882 0 0 0-5.076 7.529l-5.64.918" class="cls-1" data-name="Fill 355" transform="translate(248.317 118.762)"/>
        <path id="Fill_359" d="M23.493 15.953c-1.32.9-2.591 1.8-3.916 2.605-.128.078-.589-.388-1.086-.736a11.146 11.146 0 0 1-.833 1.455 18.028 18.028 0 0 1-1.3 1.324c-.872.9-1.712 1.9-3 .534-.1-.1-.4 0-.6-.023-1.447-.157-2.826.2-4.283-.96-1.173-.938-2.665-1.586-3.767-2.737a15.736 15.736 0 0 1-2.823-3.467C.78 11.842-.312 9.76.082 7.289a9.288 9.288 0 0 1 .909-2.018l1.921 1.574c.5-1.672.4-3.615 1.95-5.089L6.788 3.2V.938C8.823.591 10.671-.108 12.709.014a4.5 4.5 0 0 1 2.92 1.15 17.249 17.249 0 0 1 2.892 2.729c.7 1.056 1.661 1.939 2.4 3.026 1.209 1.788 1.618 3.878 2.5 5.78.422.907.073 2.174.073 3.253" class="cls-1" data-name="Fill 359" transform="translate(161.619 11.662)"/>
        <path id="Fill_361" d="M1.819 1.32v6.643A15.5 15.5 0 0 0 2.381 2.9c.02-.679-.3-1.523.522-1.929A9.281 9.281 0 0 1 5.568 0c.316-.047.916.7 1.1 1.19a5.768 5.768 0 0 1 .044 1.839c.513-.215.818-.463 1.092-.432.565.064 1.342.587 1.631.376 1.608-1.184 3.371-.406 5.034-.5a2.877 2.877 0 0 1 2.252 1.072c.885 1.5 2.672 1.964 3.609 3.733a4.315 4.315 0 0 0 .916 2.7 6.248 6.248 0 0 1 1.589 4.883 19.015 19.015 0 0 0-.035 2.929c-2.11 1.252-4.306 2.469-6.41 3.827-2.2 1.421-4.206.467-6.08-.515-1.368-.717-3.2-1.053-3.665-2.964-3.058-1.376-3.6-4.6-5.234-7.033C.318 9.467.352 7.562.041 5.83-.215 4.4.795 2.74 1.244 1.183l.574.137" class="cls-1" data-name="Fill 361" transform="translate(52.187 85.477)"/>
        <path id="Fill_363" d="M4.274 11.25L.035 7.01a24.979 24.979 0 0 1 .054-3.447c.061-.443.7-.89 1.176-1.15.18-.1.645.32.983.505.45-.89.713-2.094 2.233-1.8a1.218 1.218 0 0 0 .876-.083 2.923 2.923 0 0 1 2.55-.971c1.736.484 3.67.766 5.023 1.964 2.67 2.372 5.217 4.943 6.548 8.365a34.146 34.146 0 0 1 1.893 6.29 3 3 0 0 1-1.154 2.972c-1.758 1.232-3.451 2.562-5.248 3.733a3.74 3.74 0 0 1-2.188.612c-4.5-.389-7.7-2.506-9.033-7.587a6.344 6.344 0 0 1-.558-2.2 14.484 14.484 0 0 1 1.084-2.963" class="cls-1" data-name="Fill 363" transform="translate(109.631 109.044)"/>
        <path id="Fill_365" d="M24.8 16.8l-.368-1.862c-.008 2.463-2.609 3.385-3.175 5.479a1.226 1.226 0 0 1-1.769.666c-.748-.677-1.258-.183-1.68.092a2.734 2.734 0 0 1-3.223-.009c-3.3-1.932-6.713-3.707-8.661-7.249-2.347-1.27-3.034-3.85-4.493-5.812A15.212 15.212 0 0 1 0 4.562c.863-1.257 2.116-.924 3.631-.168a5.053 5.053 0 0 0-.406-1.776c-.414-.557.028-.776.263-.875A9.137 9.137 0 0 0 6.537.127c.215-.207.822-.125 1.2-.011.673.2 1.25.635 2 .026.212-.171.9.171 1.336.362 3.727 1.637 7.1 3.689 9.306 7.322A8.992 8.992 0 0 0 21.843 9.3c1.436 1.334 1.7 3.277 2.816 4.715A2.425 2.425 0 0 1 24.8 16.8" class="cls-1" data-name="Fill 365" transform="translate(96.826 215.334)"/>
        <path id="Fill_367" d="M20.3 4.89l.254-1.772c.225.163.425.228.477.354a37.4 37.4 0 0 1 2.25 5.878c.293 1.305.666 2.555-.6 3.572-.86.692.012 2.681-1.923 2.57-.913 1.465-2.375 1.319-3.773 1.219a21.823 21.823 0 0 1-.924 2.789c-.464.96-1.948 1.232-3.538.778-.363-.1-.714-.456-1.047-.427-2.577.225-2.572.244-3.656-1.788a30.547 30.547 0 0 1-1.613-3.043A4.481 4.481 0 0 0 3.6 12.359 5.888 5.888 0 0 1 .061 7.846a5.041 5.041 0 0 1 2.162-4.779l2.721 3.552c0-1.5-.016-2.5 0-3.509s.129-.8 1.712-1.509c1.131-.51 2.769.108 3.419-1.461l3.35-.127c2.063-.082 3.892.143 4.854 2.436A11.1 11.1 0 0 0 20.3 4.89" class="cls-1" data-name="Fill 367" transform="translate(289.231 82.916)"/>
        <path id="Fill_371" d="M4.949 11.119c-1.6-.045-3.117-.478-3.891 1.3C-.25 10.693-.4 9.47.927 8.1a19.525 19.525 0 0 1 2.7-2.94c1.025-.715 1.4-2.3 2.285-3.3A13.63 13.63 0 0 1 8.476 0c.271.264.564.553 1.024 1.006L8.046 2.039l.161.371 2.2-.347c.211.317.456 1.129.982 1.4 3.157 1.644 5.172 4.387 7.09 7.2a25.573 25.573 0 0 1 1.353 3.142c1.25 2.528 1.572 2.994 1.192 5.292a8.429 8.429 0 0 1-1.882 4.785 3.519 3.519 0 0 0-1.092 1.988c-.068 1.725-1.016 2-2.41 1.913a3.71 3.71 0 0 0-1.181.127c-2.431.654-2.682.586-3.895-1.278-1.8-2.759-2.654-5.915-3.7-8.982-.738-2.167-1.3-4.4-1.924-6.536" class="cls-1" data-name="Fill 371" transform="translate(227.262 234.089)"/>
        <path id="Fill_373" d="M19.433 24.26a21.2 21.2 0 0 1-4.863-3.244c-2.612-2.638-5.416-5.109-7.826-7.92C4.211 10.141 1.529 7.228 0 3.764c.161-1.364 1.943.085 1.977-1.529.01-.461 1.14-.906 1.766-1.343C5.3-.193 6.167-.375 7.3.831a6.8 6.8 0 0 0 3.874 1.927c2.26.479 3.82 2.215 5.754 3.283 2.072 1.142 3.544 2.981 5.225 4.578a29.272 29.272 0 0 1 2.7 2.376 8.25 8.25 0 0 1 1.711 3.159 3.236 3.236 0 0 1-.883 2.343c-.65.757-.958 1.85-2.1 2.217-.658.211-.565.947-.694 1.553-.148.7-.342 1.543-1.549.669-.845-.61-1.555.255-1.908 1.325" class="cls-1" data-name="Fill 373" transform="translate(173.412 186.985)"/>
        <path id="Fill_375" d="M12.191 25.355C8.663 23.9 7.147 21.2 5.639 18.575a56.662 56.662 0 0 1-3.518-7.182C1.14 8.926-.573 6.587.191 3.481 2.422 5.037 2.237 8.009 4.38 10c-.392-3.147-2.023-5.576-2.837-8.889l2.034 1.115c.1-.539.2-1.1.3-1.668L6.815 0c.288.461.666 1.142 1.116 1.773 1.753 2.455 1.763 2.444 4.946 3.576a5.239 5.239 0 0 1 1.01.538 15.54 15.54 0 0 1 6.066 6.02 10.552 10.552 0 0 1 1.154 3.906 1.318 1.318 0 0 0 .384.754.747.747 0 0 1-.225 1.266c-1.391.784-1.993 2.328-3.228 3.252a2.079 2.079 0 0 0-.716 1.569 3.021 3.021 0 0 1-2.677 1.846c-.5-.116-.824-1.035-1.506-.358a11.816 11.816 0 0 0-.948 1.213" class="cls-1" data-name="Fill 375" transform="translate(305.284 167.985)"/>
        <path id="Fill_377" d="M18.992 16.053l-1.889.312.759 1.421-4.578 4.579a4.633 4.633 0 0 0-.858.007c-3.472.642-5.785-1.328-7.713-3.7A28.082 28.082 0 0 1 .9 12.537 6.436 6.436 0 0 1 .162 7.97l2.931 6.44.5-.162a5.94 5.94 0 0 0-.24-1.175c-.628-1.492-1.342-2.949-1.933-4.453-.26-.668-.82-1.497.61-1.807.442-.1.7-1.048 1.038-1.612.3-.495.581-1 .815-1.4 1.447-.133 1.461 1.133 2.363 1.655-.21-.8-.42-1.594-.7-2.643l1.7-1.349c.39.388.908 1.007 1.388-.134C9.158.1 9.928-.377 11.175.432c.114.074.348.131.423.069 1.445-1.191 2.3 0 2.965.906 1.6 2.176 2.347 4.789 3.3 7.275.225.583.714 1.954-.932 2.019-.093 0-.165.515-.245.79.343.083.87.348 1 .217a.728.728 0 0 1 1.329.495c-.555 1.3.731 2.564-.027 3.849" class="cls-1" data-name="Fill 377" transform="translate(198.234 105.144)"/>
        <path id="Fill_379" d="M1.742 1.993l1.28 1.279c.1-.875.185-1.6.277-2.385C4.573.621 5.887.285 7.22.087A8.356 8.356 0 0 1 9.681.1c.613.1.132 1.237 1.275 1.337.739.065 1.307 1.32 1.832 2.194.427.709-.212 2.245 1.409 2.153q.083 1.507.169 3.015a2.865 2.865 0 0 0 .042.292l4.6 4.6a9.767 9.767 0 0 1 1.513.015c.768.124 1.6.885 1.2 1.358-.876 1.05.695 1.775.072 2.632a8.747 8.747 0 0 1-5.1.456l1.446 3.13c-.311.3-.721 1.026-1.125 1.024-2.551-.019-5.235.628-7.509-1.183a10.884 10.884 0 0 1-1.84-1.477C6.577 18.272 5.6 16.811 4.6 15.367c-.492-.712-.912-1.475-1.384-2.2-.73-1.126-.516-2.747-1.854-3.552C1.565 8.251.8 7.219.3 6.042a2.968 2.968 0 0 1 1.442-4.049" class="cls-1" data-name="Fill 379" transform="translate(204.273 53.144)"/>
        <path id="Fill_381" d="M10.078.081h2.856c1.1 0 2.3-.183 2.553 1.413a.782.782 0 0 0 .638.42c1.308-.194 1.647 1.042 2.447 1.586 2.171 1.476 2.492 3.906 3.034 6.154.31 1.282-.1 2.2-1.563 3.074-1.637.98-3.686 1.588-4.81 3.368-.992.019-1.8 1.571-2.963.329a1.2 1.2 0 0 0-.816-.235c-3.907.075-6.352-2.168-8.394-5.159C2.024 9.514.727 8.158.321 6.291A16.317 16.317 0 0 1 0 3.957c-.019-.257.132-.7.311-.766 1.572-.562 2.715-1.9 4.24-2.448a12.294 12.294 0 0 1 5.527-.662" class="cls-1" data-name="Fill 381" transform="translate(100.397 9.168)"/>
        <path id="Fill_383" d="M1.355 2.269l1.433 2.254c.145-1.078.2-1.447.243-1.817.136-1.227.134-1.225 1.685-1.383.194-.02.493.006.562-.1A2.445 2.445 0 0 1 8.2.128a10.144 10.144 0 0 1 3.6 1.686c3.836 3.233 6.092 7.566 7.845 12.163a7.966 7.966 0 0 1 .042 2.664l-1.183-.132c.078 1.11-.173 1.933-1.471 2.2a1.529 1.529 0 0 0-.96 1.052c-.131 1.337-1.5.686-1.983 1.381-.765-1.218-2.082.257-2.942-.614-.824-.833-1.952-1.476-2.5-2.454a34.443 34.443 0 0 1-3.048-6.75A4.016 4.016 0 0 0 3.788 8.78a8 8 0 0 1-3.4-3.589c-.612-1.327-.638-1.314.968-2.922" class="cls-1" data-name="Fill 383" transform="translate(104.158 157.142)"/>
        <path id="Fill_385" d="M3.209 9.071a4.266 4.266 0 0 1 .026-1.119c.067-.257.506-.431.545-.678C3.822 7 3.506 6.7 3.5 6.4c0-.26.363-.579.292-.771a2.332 2.332 0 0 0-.724-.925 2.9 2.9 0 0 0-.943-.277L2.63 6.18C1.539 5.517.325 4.985.859 3.379c.452.193.9.385 1.446.621C2.483 2.067.69 3.073 0 2.158c1.01.119 1.683-.577 2.7-.442.47.063 1.083-.938 1.805-1.622L7.946 2.9 8.277.877 12.827 0c.791 1.01 1.41 1.932 2.164 2.725.654.686 1.553 1.143 2.183 1.846 1.778 1.984 2.584 4.489 3.315 6.967.262.887.551 2.29-1.144 2.527.008 1.628-1.708 1.871-2.483 2.9-.971 1.292-2.687 1.514-4.539.766-2.774-1.12-4.6-3.286-6.369-5.4-.887-1.057-1.882-2.053-2.744-3.268" class="cls-1" data-name="Fill 385" transform="translate(160.323 114.335)"/>
        <path id="Fill_387" d="M2.78 7.52l1.535.522c.112-2.6-2.579-3.334-2.954-5.731a6.454 6.454 0 0 1 1.31.6 21.687 21.687 0 0 1 1.591 1.563 3.961 3.961 0 0 0-1.109-2.5C4.781.007 4.781.007 6.7 0c1.06 1.191 1.962 2.759 3.316 3.586 1.495.914 1.935 2.473 3.038 3.592a15.465 15.465 0 0 1 2.451 3.9 4.432 4.432 0 0 1 .585 2.494c-.159 1-.583 2.459-1.287 2.741-1.158.467-.9 1.285-1.263 1.989A3.444 3.444 0 0 1 11.1 20.4c-.732.12-1.6.679-2.141.437a11.354 11.354 0 0 1-3.619-2.368 62.107 62.107 0 0 1-5.013-6.247c-.392-.543-.211-1.5-.327-2.569l1.165.939C.938 9.013 2.318 8.471 2.78 7.52" class="cls-1" data-name="Fill 387" transform="translate(211.769 156.031)"/>
        <path id="Fill_389" d="M21.55 13.864l-1.65-.905c-.7 2.514-.868 2.645-2.924 1.739.543 1.263.977 2.274 1.451 3.372l-1.641.954-3.134-3.134c-.67 1.509 1.174 2.206.992 3.662-1.654.23-2.613-.894-3.565-1.93-.52-.565-.8-1.354-1.337-1.9A68.409 68.409 0 0 1 3.209 7.93a5.306 5.306 0 0 0-.65-.657C1.353 6.123.09 5.012 0 3.137c1.2-.737 1.842.4 2.661 1.1.832-1.377-1.093-1.561-1.007-2.576C1.728.439 4.056 2 3.464 0h3.352c.96.675 1.932 1.344 2.884 2.038s1.589 1.7 2.761 2.262c1.137.552 1.891 1.853 2.892 2.735.653.576 1.067 1.367 2.11 1.626.755.186 1.158 1.332 2.3 1.184.319-.042.894.535 1.057.944a23.231 23.231 0 0 1 .724 3.076" class="cls-1" data-name="Fill 389" transform="translate(176.724 263.224)"/>
        <path id="Fill_391" d="M13.47 8.241c1.065.07 1.8-.48 2.774.222L15 8.893c.366 1.241.772 2.473 1.07 3.731.076.322-.093.959-.317 1.053-1.242.524-1.618 1.86-2.585 2.593a3.405 3.405 0 0 1-1.629.494c-.28.031-.611-.393-.891-.363a3.162 3.162 0 0 0-1.015.539c-.531-1.878-.5-1.954-2.6-2.666-1.252-.427-1.512-1.657-2.4-2.431l-.605 1.291c-.312-.327-.838-.624-.837-.919.016-3.688.012-3.771-1.671-5.981-.949 1.668.87 2.632.968 4.264-.451-.07-1.124-.018-1.2-.21C.5 8.362-.705 6.546.531 4.24c.384-.716.453-1.092 1.314-1.107a3.318 3.318 0 0 0 1.576-.62C4.648 1.738 5.83.893 7.141 0l.51.761c1.034.721 2.112-1.22 2.285.8.05.574 1.334-.8 1.334.708 0 .581 1.068 1.164 1.605 1.7l-.556 1.446.457.317.877-1.668c.553.94.874 1.484 1.3 2.2L13.47 8.241" class="cls-1" data-name="Fill 391" transform="translate(163.533 61.801)"/>
        <path id="Fill_393" d="M10.4 16.608c-.713-.9-1.277-1.611-1.9-2.4l-.787 1.607a6.942 6.942 0 0 1-2.674-2.442C3.532 11.245 2.366 8.9.838 6.77a5.69 5.69 0 0 1-.624-4.656C1.625 1.828 1.93 3.486 3.106 3.9V.891L9.434 0a16.594 16.594 0 0 1 4.378 6.158c.549 1.316 1.681 2.3 2.025 3.808.136.595-.627 1.4.312 1.838a7.573 7.573 0 0 1-.288.728c-1.532-.553-2.048 1.67-3.522 1.313-.1-.024-.356.546-.5.858a9.586 9.586 0 0 1-.435 1.051 5.749 5.749 0 0 1-1 .854" class="cls-1" data-name="Fill 393" transform="translate(62.543 145.902)"/>
        <path id="Fill_395" d="M7.175.017L8.4 2.85l.571-1.507c.138.085.366.144.4.255a6.226 6.226 0 0 0 1.549 2.774 7.406 7.406 0 0 1 1.1 1.7 3.478 3.478 0 0 0 2.6 2.007l.5-1.01 1.7 1.271c0 .386.041.552-.006.582-.561.364-1.134.708-1.657 1.028l.494 2.759-2.166-1.055-1.249 2.515-1.5.17v1.376a2.877 2.877 0 0 1-4.184-.215c-1.469-1.339-3.125-2.471-4.623-4.066l1.906-1.259A9.319 9.319 0 0 0 2 6.72a21.183 21.183 0 0 1-2-3.734c.907-1.118 1.623-.291 2.455.059.035-.312.179-.645.081-.87C1.915.78 2.184.09 3.5.029 4.735-.028 5.974.017 7.175.017" class="cls-1" data-name="Fill 395" transform="translate(134.339 199.933)"/>
        <path id="Fill_397" d="M1.385 4.693L2.856 6.87c.137-.428.326-.7.283-.934-.211-1.118-.485-2.224-.771-3.485h1.8l.723 1.5V1.426a3.544 3.544 0 0 0 .862-.317C6.232.752 6.992-.06 7.071 0c.786.651 1.758.26 2.521.553A2.864 2.864 0 0 1 11.8 3.2c0 .434-.579.916-.493 1.28.07.3.865.362 1.1.7a1.223 1.223 0 0 1 .01 1.167c-.8.64-.625 1.469-.571 2.245a1.559 1.559 0 0 1-1.216 1.8c-.919.261-1.134.85-1.327 1.73a2.354 2.354 0 0 1-2.569 2.008 5.955 5.955 0 0 0-1.5.1c-1.234.27-2.78-.03-3.163-.93-.937-2.2-2.292-4.285-2.04-6.876.1-1.01.707-1.3 1.354-1.731" class="cls-1" data-name="Fill 397" transform="translate(52.022 207.498)"/>
        <path id="Fill_399" d="M.341 3.687l2.561.75a2.344 2.344 0 0 0-.341-2.847c1.085-.986 1.807.5 2.871.339.1-.537.2-1.1.306-1.656.833-.892 1.585.754 2.591-.023 1.03-.795 1.29.921 2.165 1.117a2.823 2.823 0 0 1 1.3 1.053c1.162 1.426 1.344 3.443 2.909 4.688.375.3.175 1.32.259 2.229-1.736-.852-1.841 1.9-3.513 1.249-.514.832-.028 2.341-1.909 2.521l-.95-1.623-.747 1.561c-1.053.25-1.536-.658-1.882-1.236A12.838 12.838 0 0 0 1.4 7.261 2.531 2.531 0 0 1 .341 3.687" class="cls-1" data-name="Fill 399" transform="translate(152.342 152.811)"/>
        <path id="Fill_401" d="M12.626 9.937L8.7 13.017H6.1c-1.013-1.464-1.342-3.391-2.834-4.6C3.106 6.378 1.7 5.115.471 3.694.082 3.241.166 2.381 0 1.538c.447-.125.89-.116 1.122-.333C3.5-1.016 5.736.233 7.629 1.748a20.407 20.407 0 0 1 4.126 4.745c.649.986.632 2.411.871 3.444" class="cls-1" data-name="Fill 401" transform="translate(124.995 64.313)"/>
    </g>
</svg>
