<svg xmlns="http://www.w3.org/2000/svg" width="171.359" height="154.573" viewBox="0 0 171.359 154.573">
    <defs>
        <style>
            .cls-1{fill:#ffe0c2}
        </style>
    </defs>
    <g id="Elemento_6" transform="translate(-.003)">
        <path id="Fill_534" d="M22.347 44.744a26.42 26.42 0 0 1-9.527-1.6 13.359 13.359 0 0 1-6.32-5.591c-.374-.573-.763-1.153-1.139-1.714C2.781 31.985.112 28 .01 23.023c-.168-8.05 1.8-14.418 6.031-19.47C8.069 1.129 10.136 0 12.544 0a8.45 8.45 0 0 1 1.3.1 5.183 5.183 0 0 1 3.669 2.86 9.437 9.437 0 0 1 1.093 4.323A2.715 2.715 0 0 1 17.531 9.2c-.168.166-.327.322-.465.487-1.934 2.306-2.729 5.091-3.5 7.785a58.13 58.13 0 0 1-.832 2.745.763.763 0 0 0 0 .637 1.185 1.185 0 0 0 .821.431 14.981 14.981 0 0 0 3.178.384 7.461 7.461 0 0 0 6.355-3.169c.23-.308.466-.618.695-.917a21.74 21.74 0 0 0 2.944-4.621 3.81 3.81 0 0 0 .072-2.938c-.047-.135-.1-.27-.152-.412a2.8 2.8 0 0 1-.263-2.131 1.973 1.973 0 0 1 1.291-.912.425.425 0 0 0 .295-.236.8.8 0 0 0-.148-.647 2.762 2.762 0 0 1-.342-2.213A3.025 3.025 0 0 1 29.16 1.7a4.954 4.954 0 0 1 2.185-.477A7.737 7.737 0 0 1 36 2.93a6.033 6.033 0 0 1 2.442 4.062l.008.089a2.39 2.39 0 0 0 .27 1.11c1.841 2.681 2.013 5.682 2.151 8.094.043.755.084 1.468.174 2.075.185 8.88-2.773 15.133-5.69 20.078-2.265 3.843-6.028 6-10.88 6.25a42.43 42.43 0 0 1-2.128.056zm4.705-2.937a18.386 18.386 0 0 0-4.451.738c-.561.141-1.141.287-1.714.409a10.135 10.135 0 0 0 2.314.276 9.728 9.728 0 0 0 4.899-1.362 8.736 8.736 0 0 0-1.048-.062z" class="cls-1" data-name="Fill 534" transform="translate(17.963 58.132)"/>
        <path id="Fill_536" d="M19.028 43.911a12.794 12.794 0 0 1-8.546-2.748 7.989 7.989 0 0 1-1.463-1.725c-.1-.15-.208-.3-.313-.444a143.328 143.328 0 0 0-1.738-2.339C4.033 32.76 1 28.735.319 23.6A30.822 30.822 0 0 1 4.113 3.511C5.513 1.115 7.137 0 9.225 0a6.126 6.126 0 0 1 .682.039 3.9 3.9 0 0 1 3 1.526 2.771 2.771 0 0 1-1.171.528 1.726 1.726 0 0 0-1.323.874.83.83 0 0 0 .518.182 1.835 1.835 0 0 0 .593-.135h.011a1.73 1.73 0 0 1 .555-.13.69.69 0 0 1 .145.015 4.451 4.451 0 0 0 .517.066c.459.042.933.084 1.061.375.106.239-.04.616-.446 1.152a.891.891 0 0 1-.068.077c-.058.061-.118.123-.107.185.008.044.05.084.127.122A1.912 1.912 0 0 1 14.4 5.9a2.412 2.412 0 0 1-.459 1.774 4.978 4.978 0 0 0-.415.906c-.1.34-.214.682-.326 1.012a9.361 9.361 0 0 0-.629 2.764 159.68 159.68 0 0 0-.034 5.565c.025 1.869.244 2.413 1.649 2.413.259 0 .574-.018.991-.058a7.334 7.334 0 0 0 4.76-2.214A6.706 6.706 0 0 0 21.71 13.2a36.57 36.57 0 0 1 1.278-9.31 3.81 3.81 0 0 1 3.1-3.133A4.335 4.335 0 0 1 26.825.7C28.71.7 31.2 1.827 31.9 3.5a38.99 38.99 0 0 1 2.909 9.553A46.3 46.3 0 0 1 33.7 32.465a21.83 21.83 0 0 1-3.195 6.986c-1.792 2.449-4.577 3.887-8.278 4.274a30.94 30.94 0 0 1-3.199.186zm3.029-2.734a9.149 9.149 0 0 0-3.913.843 19.691 19.691 0 0 0 2.424.2 5.97 5.97 0 0 0 3.36-.89 12.169 12.169 0 0 0-1.871-.152z" class="cls-1" data-name="Fill 536" transform="translate(83.166 36.064)"/>
        <path id="Fill_538" d="M20.984 41.717a19.906 19.906 0 0 1-8.729-2.029c-2.6-1.254-4.278-3.494-5.762-5.471C3.315 29.984 1.821 25.026.669 20.71-.676 15.672 0 10.531 2.746 4.995c.132-.267.259-.537.382-.8A7.48 7.48 0 0 1 5.981.471 3.346 3.346 0 0 1 7.708 0a6.67 6.67 0 0 1 2.233.5c.309.112.8.484.774.682a7.954 7.954 0 0 0 .692 3.718A7.094 7.094 0 0 1 12 9.128c-.236.934-.384 1.9-.528 2.844l-.079.512a5.048 5.048 0 0 0 .838 3.945 5.03 5.03 0 0 0 3.578 1.827 11.067 11.067 0 0 0 1.191.067 7.857 7.857 0 0 0 6.6-3.234 18.819 18.819 0 0 0 3.332-7.074 3.649 3.649 0 0 1 3.668-3.04 4.9 4.9 0 0 1 .721.055c3.631.544 4.555 1.539 4.945 5.324 0 .047.008.1.011.145a.971.971 0 0 0 .135.545c1.409 1.686 1.468 3.62 1.535 5.86.024.808.05 1.643.141 2.512a27.3 27.3 0 0 1-5.647 17.534 11.283 11.283 0 0 1-6.71 4.227 21.875 21.875 0 0 1-4.747.54zm-.131-2.583a17.946 17.946 0 0 0-3.3.276 7.261 7.261 0 0 0 3.207.663 6.563 6.563 0 0 0 3.4-.807l-.441-.025c-.982-.054-1.908-.107-2.866-.107z" class="cls-1" data-name="Fill 538" transform="translate(63.867 94.728)"/>
        <path id="Fill_540" d="M15.99 41.531a11.694 11.694 0 0 1-9.072-4.286 13.215 13.215 0 0 1-3.308-6.771 2.929 2.929 0 0 0-.526-1.169l-.063-.1A18.767 18.767 0 0 1 0 19.244 23.994 23.994 0 0 1 2.377 9.156c1.1-2.419 2.727-3.7 4.7-3.7a6.727 6.727 0 0 1 3.938 1.509l.081.06c.351.258.787.58.709 1.067-.067.408-.339.442-.611.442h-.259a1.01 1.01 0 0 0-.323.04 3.66 3.66 0 0 1-.224.065c-.342.092-.7.186-.64.64.048.409.341.444.637.444h.2a1.547 1.547 0 0 1 .178.008l.076.008c.693.071 1.41.144 1.677.962.193.591-.178.8-.571 1.03a1.867 1.867 0 0 0-.595.456 1.9 1.9 0 0 1 1.286.872 2 2 0 0 1-.328 1.573 2.9 2.9 0 0 0-.391 1.173 1.816 1.816 0 0 1-.15.612c-.153.419-.312.853.117 1.269a1.634 1.634 0 0 0 1.174.476 2.761 2.761 0 0 0 1.016-.221 9.742 9.742 0 0 0 6-7.54c.267-1.253.625-2.5.972-3.7s.7-2.431.965-3.672A3.888 3.888 0 0 1 25.974 0a4.72 4.72 0 0 1 1.04.117c2.836.641 4.385 2.243 4.735 4.9.144 1.1.345 2.2.539 3.26a32.617 32.617 0 0 1 .751 6.837c-.245 8.519-2.721 15.65-7.57 21.8a12.011 12.011 0 0 1-9.479 4.617zm-.548-2.552a3.571 3.571 0 0 0-1.575.322l.454.117a6.7 6.7 0 0 0 1.667.3 2.35 2.35 0 0 0 1.534-.536c-.223-.022-.45-.051-.67-.079a11.245 11.245 0 0 0-1.41-.125z" class="cls-1" data-name="Fill 540" transform="translate(138.314 10.237)"/>
        <path id="Fill_542" d="M15.226 34.975a6.113 6.113 0 0 1-1.879-.409 7.352 7.352 0 0 0-1.758-.419.8.8 0 0 1-.75-.859.511.511 0 0 1 .311-.342h.009a3.025 3.025 0 0 0 .465.045.555.555 0 0 0 .489-.177c.1-.151.086-.4-.054-.771a2.638 2.638 0 0 1-.1-.361c-.077-.346-.156-.7-.577-.821a.874.874 0 0 0-.231-.037c-.315 0-.336.283-.355.557s-.041.558-.352.558h-.049a.293.293 0 0 1-.168.086c-.15 0-.154-.314-.159-.617s-.01-.617-.153-.617c-.121 0-.327.218-.632.667A1.016 1.016 0 0 0 9.2 31.4a.378.378 0 0 1-.158-.145 8.9 8.9 0 0 0-1.974-2.661A11.3 11.3 0 0 1 5.35 26.48a36.535 36.535 0 0 0-1.083-1.722 19.3 19.3 0 0 1-1.916-3.409A31 31 0 0 1 .52 3.94C1 1.362 2.444 0 4.682 0a6.505 6.505 0 0 1 1.233.126 2.768 2.768 0 0 1 2.113 1.5c.267.572.563 1.146.849 1.7 1.285 2.491 2.614 5.066 1.676 8.234-.406 1.367.564 2.754 1.178 3.458a1.736 1.736 0 0 0 1.294.716 1.7 1.7 0 0 0 .767-.2l.158-.081a11.889 11.889 0 0 0 4.442-3.211c.515-.68 1.1-1.327 1.665-1.952.378-.418.769-.85 1.136-1.289a9 9 0 0 0 1.753-5.25c.162-2.084 1.214-3.33 2.815-3.33a4.35 4.35 0 0 1 1.773.429 4.616 4.616 0 0 1 2.52 2.222c.226.527.46 1.057.687 1.57a34.337 34.337 0 0 1 2.453 6.831 33.772 33.772 0 0 1 .645 8.767 6.294 6.294 0 0 1-.389 1.651 5.181 5.181 0 0 0-.386 2.094.514.514 0 0 1-.157.322 1.348 1.348 0 0 1-.724.465 1.5 1.5 0 0 0-1.234.906 2.682 2.682 0 0 1-.5.634 1.035 1.035 0 0 0 .526.169 1.24 1.24 0 0 0 .734-.344l.06-.046a1.516 1.516 0 0 1 .96-.39h.069a8.511 8.511 0 0 0-2.924 4.02c-.339.929-1.6 1.528-2.615 2.009-.134.064-.263.125-.383.184a28.166 28.166 0 0 1-11.571 3.059zm2.893-4.487a6.021 6.021 0 0 1-.071.772c-.075.559-.145 1.086.089 1.354a.58.58 0 0 0 .464.174h.062l.3-.012a3.213 3.213 0 0 0 3.028-1.345 1.773 1.773 0 0 0-.533-.076 4.677 4.677 0 0 0-.99.145l-.025.005a4.407 4.407 0 0 1-.924.139c-.658-.002-1.088-.358-1.4-1.157zm6.581-7.381a1.283 1.283 0 0 0-.147.008.423.423 0 0 0-.331.177 1.117 1.117 0 0 0 .075.86.818.818 0 0 0-.136.8.677.677 0 0 0 .576.356c.055.005.106.008.152.008a.394.394 0 0 0 .332-.11c.085-.114.029-.3-.03-.494a1.16 1.16 0 0 1-.073-.387c.017-.214.066-.309.16-.309a.514.514 0 0 1 .2.071.878.878 0 0 0 .223.087.817.817 0 0 0 .148.015.3.3 0 0 0 .322-.2.416.416 0 0 0-.171-.434 2.548 2.548 0 0 0-1.3-.448z" class="cls-1" data-name="Fill 542" transform="translate(.003 119.598)"/>
        <path id="Fill_544" d="M12.277 37.987a.352.352 0 0 1-.3-.121c-.167-.22-.04-.746.131-1.359-.489.952-.909 1.376-1.359 1.376a1.52 1.52 0 0 1-1.048-.66 1.561 1.561 0 0 0-1.066-.408c-.145-.018-.294-.036-.435-.068-.952-.214-1.08-.418-1.053-1.678.006-.269-.128-.311-.284-.359a1.232 1.232 0 0 1-.145-.052 5.357 5.357 0 0 1-3.18-5.279c0-.166.007-.345.017-.533a2.61 2.61 0 0 0-.371-1.924 1.644 1.644 0 0 0-1.251-.417c-.066 0-.136 0-.206.006H1.7c-.254 0-.332-.175-.414-.361l-.034-.075a12.442 12.442 0 0 1-1.198-6.536 15.63 15.63 0 0 1 2.134-6.27 5.162 5.162 0 0 1 4.421-2.338 4.662 4.662 0 0 1 1.549.254 3.264 3.264 0 0 1 1.722 1.558.538.538 0 0 1 .008.5c-.176.314-.705.443-1.119.5a.4.4 0 0 0-.311.161c-.107.169-.022.431.053.662l.011.033c.131.4.366.605.7.605a1.23 1.23 0 0 0 .422-.086 2.937 2.937 0 0 1 .944-.234.494.494 0 0 1 .389.146c.18.2.221.6.143 1.395-.086.865.8 1.333 1.659 1.787a8.634 8.634 0 0 1 .8.456.557.557 0 0 0 .31.11c.44 0 .695-.727.832-1.118a1.379 1.379 0 0 1 .642-.814c2.771-1.419 3.205-4.1 3.625-6.685l.068-.419a27.99 27.99 0 0 0 .213-1.766 21.419 21.419 0 0 1 .282-2.13c.167-.816.4-1.673.622-2.5.116-.43.235-.871.344-1.3C20.969.242 22.318 0 23.578 0c.215 0 .451.008.745.025a11.456 11.456 0 0 1 2.57.556c.174.052.347.1.52.153.245.07.615.422.592.611a3.408 3.408 0 0 0 .538 1.932 2.891 2.891 0 0 1 .378 2.623c-.195.454.424 1.355.833 1.951l.006.008c.386.558.579.839.51 1.045s-.44.344-1.138.575c.883.374 1.721.858 1.87 1.835.065.427-.2.48-.51.542a1.076 1.076 0 0 0-.653.3 1.571 1.571 0 0 1 1.305.538 2.252 2.252 0 0 1 .075 1.974 8.531 8.531 0 0 0-.124 3.239 11.235 11.235 0 0 1 .049 2.354c-.062.515-.15 1.042-.234 1.552-.117.705-.238 1.432-.3 2.149-.026.32-.1.469-.23.469s-.332-.176-.537-.362L29.77 24a1.322 1.322 0 0 0-.736-.432.375.375 0 0 0-.053 0 .715.715 0 0 0-.234.6.6.6 0 0 0 .357.414 2.473 2.473 0 0 0 .456.155c.395.107.8.218.756.68s-.236 1.966-.82 2.222a2.012 2.012 0 0 0-1 2.46l.022.152a1.316 1.316 0 0 1-.116 1 .456.456 0 0 1-.366.141 2.8 2.8 0 0 1-.689-.137 2.486 2.486 0 0 0-.669-.105c-.665 0-1.067.381-1.23 1.164-.156.754-.7 1-1.28 1.252a2.5 2.5 0 0 0-1.111.758 8.292 8.292 0 0 1-.542.658A2.945 2.945 0 0 0 21.5 37.2c-1.146-.138-1.231-.829-1.322-1.56a2.475 2.475 0 0 0-.371-1.22c-.234 2.9-2.236 3.1-4.173 3.288-.18.018-.359.036-.537.056a2.59 2.59 0 0 1-.286.015c-.2 0-.4-.018-.6-.035s-.4-.034-.585-.034a1.748 1.748 0 0 0-.648.1 2.093 2.093 0 0 1-.701.177zm.876-3.044c-.106 0-.363.2-.535.463a.708.708 0 0 0-.133.653 1.427 1.427 0 0 0 1.118.688.338.338 0 0 0 .225-.066 4.055 4.055 0 0 1 2.42-.783 5.046 5.046 0 0 0 2.159-.555 1.947 1.947 0 0 0-1.318-.4c-.369-.019-.687-.034-.847-.236a1.3 1.3 0 0 0-.986-.608 1.965 1.965 0 0 0-1.006.424 1.969 1.969 0 0 1-1 .425.83.83 0 0 1-.093-.005zm1.263-6.887c-.683 0-1.421.078-1.531 1.009a.782.782 0 0 0 .117.622.991.991 0 0 0 .744.19 1.523 1.523 0 0 1 .612.085.919.919 0 0 0 .405.091 2.021 2.021 0 0 0 .6-.122l.017-.005a1.86 1.86 0 0 1 .548-.118.685.685 0 0 1 .229.037 1.413 1.413 0 0 0 .453.086.773.773 0 0 0 .726-.5c.237-.482-.037-.862-.3-1.228a3.5 3.5 0 0 1-.237-.356.415.415 0 0 0-.371-.254 1.26 1.26 0 0 0-.562.22c-.052.03-.1.059-.15.084a1.8 1.8 0 0 0-.224.152.81.81 0 0 1-.465.217.693.693 0 0 1-.448-.213zm-2.264-6.621a1.429 1.429 0 0 0-1 .376 1.01 1.01 0 0 0-.34.711.946.946 0 0 0 .289.681 1.06 1.06 0 0 0 .738.193 7.028 7.028 0 0 0 2.4-.542.376.376 0 0 0 .057 0 1.124 1.124 0 0 0 .644-.347 5.267 5.267 0 0 1-.7.343c-.161-.029-.289-.164-.434-.446a1.877 1.877 0 0 0-1.647-.972zm3.426.458c-.27.278-.475.475-.644.62a1.432 1.432 0 0 0 .645-.62z" class="cls-1" data-name="Fill 544" transform="translate(120.326 69.873)"/>
        <path id="Fill_546" d="M16.952 32.642a7.916 7.916 0 0 1-.918-.054 3.931 3.931 0 0 1-1.752-.763 7.315 7.315 0 0 0-.76-.457c-.7-.348-1.42-.69-2.115-1.021a47.759 47.759 0 0 1-6.3-3.4c-1.387-.939-2.948-3.207-3.978-5.778C-.013 18.325-.3 15.7.327 13.963A6.275 6.275 0 0 1 5.214 9.51a3.187 3.187 0 0 1 .64-.073c.988 0 1.468.656 1.556 2.126a3.238 3.238 0 0 0 1.358-2.016 27.058 27.058 0 0 1 2.163-5.693A7.154 7.154 0 0 1 16.115.095 3.328 3.328 0 0 1 16.877 0a1.854 1.854 0 0 1 1.543.7 2.011 2.011 0 0 1 0 2.345 11.461 11.461 0 0 0-.749 1.742c-.12.324-.242.656-.388 1.019A4.626 4.626 0 0 0 19.641 4.5c.145-.128.283-.25.427-.367a2.554 2.554 0 0 1 1.542-.686c.767 0 1.313.623 1.579 1.8l.027.121c.171.772.266 1.2 1.352 1.42.843.169 1.195 1.112 1.532 2.012.116.311.226.6.355.868a20.455 20.455 0 0 1 1.978 10.266 13.362 13.362 0 0 1-1.909 6.28 15.657 15.657 0 0 1-4.623 4.7 8.6 8.6 0 0 1-4.949 1.728zM22.98 27.5a5.779 5.779 0 0 0-3.1 2.631 5.044 5.044 0 0 1 1.063-.575A2.881 2.881 0 0 0 22.98 27.5z" class="cls-1" data-name="Fill 546" transform="translate(48.276 18.438)"/>
        <path id="Fill_548" d="M7.154 8.505c1.115-2.528 1.62-5.137 3.588-6.98a4.3 4.3 0 0 1 .92-.825C12.51.29 13.586-.375 14.32.258c.636.549.531 1.708.208 2.652-.156.453-.735 1.075-.071 1.41.562.282.883-.446 1.242-.82.207-.216.361-.485.578-.687.405-.378.6-1.2 1.363-.894a1.773 1.773 0 0 1 1.235 1.426c.083.693.077 1.338 1.156.869.549-.239.933.474 1.231.876 3.287 4.444 3.968 9.043-.3 13.572-1.307 1.385-2.649 2.735-3.973 4.1a2.185 2.185 0 0 1-2.494.429c-1-.354.078-1.162-.367-1.809-1.013 1.629-1.988 1.412-3.284.237-.8-.728-1.766-1.637-3.278-1.028C7 20.82 5.945 20.2 5.3 19.723A11.916 11.916 0 0 1 0 10.026 3.727 3.727 0 0 1 2.163 6.2a2.749 2.749 0 0 1 .982-.249C3.9 7.659 6.118 6.977 7.154 8.505" class="cls-1" data-name="Fill 548" transform="translate(99.655)"/>
    </g>
</svg>
