<svg xmlns="http://www.w3.org/2000/svg" width="134.887" height="108.946" viewBox="0 0 134.887 108.946">
    <defs>
        <style>
            .cls-1{fill:#e82147}
        </style>
    </defs>
    <g id="Elemento_7">
        <path id="Fill_550" d="M7.033 36.149a2.254 2.254 0 0 1-.741-.159A8.423 8.423 0 0 1 1.914 32 18.154 18.154 0 0 1 0 23.741a21.321 21.321 0 0 1 1.91-8.247C4.343 9.932 7.145 5.88 10.727 2.741c1.82-1.6 4.064-2.063 6.233-2.516.255-.053.509-.106.762-.161a2.815 2.815 0 0 1 .6-.064c1.768 0 3.544 1.695 4.043 3.859a24.264 24.264 0 0 1 .472 4.941 50.136 50.136 0 0 1-1.948 11.442 43.232 43.232 0 0 1-4.773 10.584 15.812 15.812 0 0 1-4.4 4.339 2.815 2.815 0 0 1-1.711.464c-.232 0-.471-.013-.7-.026a12.108 12.108 0 0 0-.71-.027c-.1 0-.2 0-.286.007H8.3a1.132 1.132 0 0 1-.387-.139l-.034-.016a1.242 1.242 0 0 0-.474-.155.232.232 0 0 0-.188.079c-.1.118-.12.366-.06.76a.019.019 0 0 1 0 .016c-.018.012-.057.021-.124.021zm5.5-28.509c-.312 0-.494.253-.67.5a5.03 5.03 0 0 1-.131.176 40.366 40.366 0 0 0-5.393 9.008 20.985 20.985 0 0 0-1.909 6.233 3.768 3.768 0 0 0 .8 2.97 2.928 2.928 0 0 0 2.219.942 4.486 4.486 0 0 0 1.766-.391 9.018 9.018 0 0 0 3.98-3.346 32.426 32.426 0 0 0 4.838-13.655c0-.158 0-.311.007-.459.022-1.071.038-1.844-1.017-2.153a1.807 1.807 0 0 0-.5-.081c-.7 0-.963.557-1.245 1.146-.053.11-.107.223-.164.332-.027.05-.053.1-.079.157-.167.339-.356.723-.812.723a.908.908 0 0 1-.108-.007c-.684-.081-.858-.644-.934-1.125a3.336 3.336 0 0 1-.024-.2c-.032-.316-.065-.643-.431-.744a.7.7 0 0 0-.197-.026z" class="cls-1" data-name="Fill 550" transform="translate(0 12.508)"/>
        <path id="Fill_552" d="M7.168 32.045c-2.152 0-4.073-1.572-5.411-4.426A20.4 20.4 0 0 1 0 18.938 25.261 25.261 0 0 1 4.883 3.023 9.172 9.172 0 0 1 7.48.448 2.929 2.929 0 0 1 8.981 0a2.153 2.153 0 0 1 2.106 1.674c.25.895.669 1.111 1.514 1.256 3.775.647 6.385 3.412 6.5 6.881a28.6 28.6 0 0 1-1.6 10.626 26.53 26.53 0 0 1-5.613 9.127 6.677 6.677 0 0 1-4.72 2.481zM4.855 10.817A13.584 13.584 0 0 0 5.614 21.7c.71 1.318 1.539 1.987 2.465 1.987a3.556 3.556 0 0 0 2.548-1.575 16.106 16.106 0 0 0 2.773-5.53c.938-2.976-.09-5.038-3.054-6.128a2.665 2.665 0 0 0-.9-.192c-.636 0-1.02.4-1.176 1.224-.171.9-.511 1.935-1.627 1.935h-.081c-1-.044-1.148-.843-1.288-1.617a6.66 6.66 0 0 0-.121-.577.493.493 0 0 0-.084-.128 4.145 4.145 0 0 1-.214-.282z" class="cls-1" data-name="Fill 552" transform="translate(115.774 3.281)"/>
        <path id="Fill_554" d="M6.452 32.148a4.4 4.4 0 0 1-3.912-2.6 20.439 20.439 0 0 1-2.36-6.723A16.218 16.218 0 0 1 .7 15.7 30.285 30.285 0 0 1 6.9 4.162c.345-.393.864-.915 1.386-.915a.772.772 0 0 1 .207.028A1.946 1.946 0 0 0 9 3.351c.8 0 1.2-.63 1.546-1.185l.066-.105A4.093 4.093 0 0 1 14.3 0a6.763 6.763 0 0 1 1.133.1c2.441.419 3.954 1.614 4.626 3.652a8.887 8.887 0 0 1 .319 4.107 31.019 31.019 0 0 1-1.619 8.272 74.618 74.618 0 0 1-3.189 7.808 20.139 20.139 0 0 1-2.5 4.219 12.034 12.034 0 0 1-3.77 3.186 6.077 6.077 0 0 1-2.848.804zM8.7 8.068c-.339 0-.557.324-.656.517-1.722 3.33-3.674 7.1-4.08 11.489.073 1.232.334 2.731 1.718 3.392a1.647 1.647 0 0 0 .714.171 3.464 3.464 0 0 0 2.21-1.389l.091-.095a25.959 25.959 0 0 0 6.417-11.946c.253-1.007-.212-1.672-1.462-2.092a2.452 2.452 0 0 0-.774-.149c-.57 0-.961.331-1.231 1.041-.248.657-.578 1.359-1.351 1.359a1.414 1.414 0 0 1-.2-.014c-.58-.082-.666-.544-.748-.99a2.525 2.525 0 0 0-.136-.525 1.209 1.209 0 0 1-.069-.274c-.037-.217-.076-.441-.358-.487a.546.546 0 0 0-.085-.008z" class="cls-1" data-name="Fill 554" transform="translate(75.713 14.97)"/>
        <path id="Fill_556" d="M6.407 34.376a6.166 6.166 0 0 1-3.126-.8 3.407 3.407 0 0 1-1.048-1.136 2.866 2.866 0 0 0-1.241-1.216c.815-.885.317-1.454-.164-2a2.032 2.032 0 0 1-.6-1.025 28.774 28.774 0 0 1-.091-6.322A17.774 17.774 0 0 1 1.9 15.748 27.084 27.084 0 0 1 9.967 5.86a1.311 1.311 0 0 0 .533-1.068 6.536 6.536 0 0 1 .381-1.858c.8-1.92 1.93-2.934 3.273-2.934a4.839 4.839 0 0 1 3.075 1.462A10 10 0 0 1 20.6 9.586c-.116 5.078-1.848 9.72-3.613 14.04a30.1 30.1 0 0 1-5.179 8.429 7.27 7.27 0 0 1-5.401 2.321zm5.039-24.689a1.8 1.8 0 0 0-1.221.762l-.186.2a23.684 23.684 0 0 0-4.029 5.313l-.061.114c-1.12 2.072-2.277 4.224-1.974 6.763l.019.161c.187 1.592.38 3.239 2.107 3.754a3.144 3.144 0 0 0 .9.136c1.385 0 2.507-.993 3.514-2.065a1.015 1.015 0 0 0 .1-.14 1.272 1.272 0 0 1 .083-.117c2.724-3.29 3.865-7.322 4.72-10.843a5.882 5.882 0 0 0-1.738-5.8 2.025 2.025 0 0 0-.554 1.237 5.976 5.976 0 0 1-.035.193c-.079.4-.316.662-.6.662a.6.6 0 0 1-.305-.091 1.452 1.452 0 0 0-.74-.239z" class="cls-1" data-name="Fill 556" transform="translate(103.705 45.081)"/>
        <path id="Fill_558" d="M3.6 32.114c-.951 0-1.494-.76-1.94-1.582A13.643 13.643 0 0 1 .3 21.1 50.509 50.509 0 0 1 7.7 3.064 13.859 13.859 0 0 1 10.054.489 1.593 1.593 0 0 1 11.076 0c.512 0 .907.438 1.11 1.232.02.08.036.164.051.244.069.364.14.741.644.88 2.155.592 2.675 2.389 3.178 4.126.069.24.141.487.215.725a7.45 7.45 0 0 1 .226 1.888c.015.367.031.783.07 1.236a36.73 36.73 0 0 1-4.96 16.214c-.187.321-.4.636-.6.941s-.412.618-.6.938c-1.4 2.405-3.616 3.612-6.763 3.689zm6.78-23.659A1.942 1.942 0 0 0 8.4 9.734a5.59 5.59 0 0 1-.689 1.255c-2.388 3.168-3.159 6.953-3.9 10.613-.1.468-.194.953-.295 1.429.011.137.016.28.021.418.026.689.052 1.4.743 1.741a1.025 1.025 0 0 0 .453.11 2.152 2.152 0 0 0 1.256-.652c.09-.074.175-.144.262-.21a8.512 8.512 0 0 0 2.012-2.257 29.279 29.279 0 0 0 4.175-11.116c.233-1.507-.036-2.313-.822-2.463a6.584 6.584 0 0 0-1.231-.147z" class="cls-1" data-name="Fill 558" transform="translate(29.103 34.69)"/>
        <path id="Fill_560" d="M4.393 28.834a4.491 4.491 0 0 1-1.4-.246c.708-.331 1.075-.7 1.062-1.075s-.4-.734-1.043-.978C.975 25.759.616 24.03.27 22.357c-.047-.228-.1-.462-.147-.687a8.106 8.106 0 0 1 .267-3.78A51.9 51.9 0 0 1 7.362 2.62a5.672 5.672 0 0 1 .9-1A5.538 5.538 0 0 0 9.244.487.95.95 0 0 1 10.051 0a.94.94 0 0 1 .3.051c.441.15.605.448.55 1a2.784 2.784 0 0 0 1.021 2.364c1.971 1.937 1.736 4.623 1.547 6.78A35.788 35.788 0 0 1 7.7 26.666c-.96 1.479-2.01 2.168-3.307 2.168zm.416-16.459a.25.25 0 0 0-.219.189.314.314 0 0 0 .114.36c1.007.745.653 1.546.31 2.32-.07.158-.142.321-.2.479a9.119 9.119 0 0 0-.558 5.7 8.577 8.577 0 0 0 1.977-2.903c.152-.313.309-.637.478-.947a21.083 21.083 0 0 0 2.219-7.489c.055-.407.05-.9-.479-1.053A.711.711 0 0 0 8.248 9c-.362 0-.578.321-.768.6l-.019.029a1.806 1.806 0 0 0-.186.46c-.071.231-.137.449-.285.521-.32.156-.441.552-.559.936-.151.491-.306 1-.879 1a1.814 1.814 0 0 1-.673-.161.182.182 0 0 0-.07-.01z" class="cls-1" data-name="Fill 560" transform="translate(51.753 61.993)"/>
        <path id="Fill_562" d="M6.543 12.344l-.432-1.5a15.9 15.9 0 0 0-2.9 5.574A1.878 1.878 0 0 0 5.243 18.8 4.012 4.012 0 0 0 8.4 16.864a22.628 22.628 0 0 0 3.336-9.569 5.657 5.657 0 0 0-.593-3.462c-.543-.955.549-3.36 1.673-3.722 1.407-.453 2.075.564 2.555 1.59.945 2.022.615 4.215.421 6.3a31.365 31.365 0 0 1-4.283 13.239c-1.081 1.819-2.321 3.491-4.624 3.822-3.923.562-5.531.15-6.551-3.791-1.344-5.193 1.5-12.4 5.933-15.512a1.637 1.637 0 0 1 1.623-.39c.727.281.622.949.646 1.5.091 2.035-.82 3.77-1.591 5.541l-.4-.058" class="cls-1" data-name="Fill 562" transform="translate(44.577)"/>
        <path id="Fill_564" d="M2.494 27.068c-1.256.108-2.174-.384-2.23-1.583-.1-2.118-.569-4.092.048-6.41A35.017 35.017 0 0 1 5.137 8.4c.968-1.44.574-3.04 1.185-4.479A9.169 9.169 0 0 1 8.373.735C8.983.154 9.633-.281 10.5.219a2.173 2.173 0 0 1 1.209 2.115C12.032 9.4 9.355 15.708 6.971 22.1a16.389 16.389 0 0 1-2.248 3.841 2.336 2.336 0 0 1-2.23 1.127" class="cls-1" data-name="Fill 564" transform="translate(75.763 81.864)"/>
    </g>
</svg>
