<svg xmlns="http://www.w3.org/2000/svg" width="159" height="17.001" viewBox="0 0 159 17.001">
    <defs>
        <style>
            .cls-1{fill:#ffe4c7}
        </style>
    </defs>
    <g id="Elemento_5" transform="rotate(-90 8.5 8.5)">
        <path id="Fill_1" d="M10.066 159c-.7 0-1.779-.735-1.82-1.395a14.25 14.25 0 0 1-.011-1.15c0-.158.005-.316.006-.474a46.408 46.408 0 0 1 .776-5.777c.2-1.151.416-2.341.568-3.52.775-6 .479-12.094.192-17.991l-.087-1.82c-.336-7.181-2.428-14.061-4.452-20.715a293.792 293.792 0 0 1-1.742-5.876 97.341 97.341 0 0 1-2.741-12.7 70.6 70.6 0 0 1-.7-12.955 37.223 37.223 0 0 1 2.715-12.3C4.715 57.4 6.453 53.405 8.24 49.76a41.1 41.1 0 0 0 3.845-16.375 110.431 110.431 0 0 0-.128-13.98A26.906 26.906 0 0 0 8.843 9.153a24.192 24.192 0 0 1-2.268-6.766 3.542 3.542 0 0 1 .051-1.6c.019-.068.034-.14.051-.217C6.739.29 6.8 0 7 0c.131 0 .307.123.537.376a.118.118 0 0 0 .091.044.33.33 0 0 0 .165-.076.339.339 0 0 1 .153-.074h.085a.946.946 0 0 1 1.08.982 15.979 15.979 0 0 0 2.13 6.671c.326.656.672 1.316 1.006 1.954a35.6 35.6 0 0 1 2.6 5.786 26.585 26.585 0 0 1 1.627 8.483 42.48 42.48 0 0 0 .47 6.079 11.347 11.347 0 0 1-.071 2.632c-.04.376-.081.764-.1 1.145a4.766 4.766 0 0 0 .113 1.155 4.2 4.2 0 0 1 .1 1.158c-.058.637-.08 1.288-.1 1.917-.012.354-.025.72-.044 1.08a51.176 51.176 0 0 1-1.315 8.19 44.317 44.317 0 0 1-3.027 8.323c-.77 1.744-1.566 3.547-2.192 5.38-.349 1.021-.727 2.053-1.092 3.05a61.162 61.162 0 0 0-2.361 7.4 29.277 29.277 0 0 0-.5 6.459c-.012 8 1.535 16.45 4.868 26.607.929 2.831 1.889 5.759 2.686 8.741a62.454 62.454 0 0 1 1.563 7.259c.4 2.776.852 6 1.041 9.183.555 9.35-.1 16.918-2.059 23.816a7.522 7.522 0 0 1-.181.537 4.45 4.45 0 0 0-.26.9c-.29 2.092-1.819 2.948-3.638 3.775a.74.74 0 0 1-.309.068zm1.4-16.347a72.832 72.832 0 0 1-.985 7.329c-.353 2.084-.717 4.237-.911 6.377 1.278-4.842 2.254-11.886 1.892-13.706zm4.7-10.5v8.422h.13v-8.428z" class="cls-1" data-name="Fill 1"/>
    </g>
</svg>
