<svg xmlns="http://www.w3.org/2000/svg" id="Elemtno_4" width="167.889" height="166.485" viewBox="0 0 167.889 166.485">
    <defs>
        <style>
            .cls-1{fill:#e82147}
        </style>
    </defs>
    <path id="Fill_265" d="M9.092.063h1.442c.445.34 0 .885.339 1.28l.992.054C12.193.721 12.426-.26 13.6.064c.449.106.092.687.415.833.682.224 1.15-.153 1.786-.5.827 1.161 2.335 1.439 3.344 2.479.2.8-.154 1.692.465 2.473a1.258 1.258 0 0 1-.11 1.225c-.718.679.152 1.373-.08 1.838-.342.686-.069 1.23-.2 1.76.619.257.837-.074 1.243-.5.076 1.637.342 3.111-.51 4.546l-1.182.131c.2.716-.479 1.239-.451 1.949a5.554 5.554 0 0 1-.916 3.182A4.532 4.532 0 0 0 16.97 22l-2.113 1.937-.3-.25c-.308.258-.616.7-1.009.8-.54.134-.907.7-1.593.508a5.344 5.344 0 0 0-1.55-.024 4.346 4.346 0 0 0-1.294.1c-.512.179-.948.685-1.457.752a23.115 23.115 0 0 1-2.964.036c-.523-.994-1.667-1.23-2.583-1.638a3.732 3.732 0 0 1-2-2.3c-.357-.955.262-1.942.711-2.777a7.646 7.646 0 0 1 2.357-2.771c-.751-1.207-1.439-2.365-.446-3.712C3.016 8.746 5.458 5.772 7.2 2.5c.468-.863 1.6-1.268 1.892-2.437" class="cls-1" data-name="Fill 265" transform="translate(0 116.577)"/>
    <path id="Fill_267" d="M11.039.209l-.393.475c.109.347.461.186.708.315.41.3-.122.871.346 1.239.151-.016.431.039.536-.072 1.36-1.428 1.607-.834 2.814.244a.551.551 0 0 0 .417.148c2.778.242 3.856 1.327 4.168 4.066.361.044.474-.536.985-.312.273.9 1.413 1.466 1.16 2.747-.052.267.511.655.79.987-1.069.89.992 2.126-.29 2.991.027.57.674.674.8 1.168.142.572-.305.917-.452 1.376a25.38 25.38 0 0 1-2.4 4.335c-.668 1.218-2.161 1.735-3.306 2.4-.617-.122-.814-.663-1.238-.912-.129.328-.229.583-.4 1.01-.29-.423-.53-.773-.752-1.1-.6.393-.187.929-.5 1.353H11l-.831-.831c-1.06 1.027-1.965.212-2.919-.39-1.262 1.277-2.545-.665-3.843.061-.558-.614-1.4-.929-1.265-1.94.015-.111-.109-.341-.184-.349C.446 19.066.584 17.586 0 16.738a6.714 6.714 0 0 1 1.8-2.329c.163-.151.315-.449.473-.45C4.246 13.951 4.327 12.085 5.2 11a8.721 8.721 0 0 0 1.356-3.21 13.779 13.779 0 0 0 .554-3.359c.042-1.256-.029-2.812 1.726-3.323.313-.091.546-.488.791-.765.419-.474.879-.394 1.412-.134" class="cls-1" data-name="Fill 267" transform="translate(144.786 40.473)"/>
    <path id="Fill_269" d="M18.11 22.216a5.3 5.3 0 0 1-2.4.554 48.78 48.78 0 0 0-5.112.008 7.984 7.984 0 0 1-2.443-.265c-.575-.149-.959.7-1.421.058-.378-.522-.982-.115-1.436-.283-.514-.19-.944-.667-1.622-.326-.3.128.2.823-.493.766-1.344-.092-.557-1.837-1.679-2.166l-.268.76a.553.553 0 0 1-.594-.435c-.131-1.12-.748-2.146-.623-3.311a3.513 3.513 0 0 1 .31-1.209 7.691 7.691 0 0 0 .988-4.015c-.089-.867.627-1.411.529-2.271-.083-.734-.4-1.631.4-2.257 0-1.333.078-2.674-.02-4-.131-1.757.9-2.8 2.105-3.755.179-.14.565-.019.833-.019a5.052 5.052 0 0 1 .7 2.53A5.245 5.245 0 0 1 6.9.927c.581-.509 1.085-.664 1.694-.1.255.237.425.6.88.561a3.362 3.362 0 0 1 2.928 1.5c.708.862 1.806 1.346 1.977 2.756.124 1.018 1.023 1.922 1.483 2.92 1.235 2.675 2.485 5.345 3.6 8.072.536 1.313-.019 2.638-.529 3.887-.233.57-.534 1.111-.82 1.7" class="cls-1" data-name="Fill 269" transform="translate(93.06 49.363)"/>
    <path id="Fill_271" d="M6.174.036c.066.809-.119 1.674.226 2.051.568.618-.667 1 .06 1.477C7.6 2.685 7.544 1.04 8.6.112a4.235 4.235 0 0 1 1.842 1.209c.607.1.688-.288 1.074-.456 1.142.639 2.533 1.149 3.365 2.3a8.39 8.39 0 0 1 2.038 4.93 25.991 25.991 0 0 0 .012 2.669c.29 2.911-.6 5.6-1.477 8.294a10.128 10.128 0 0 1-1.683 3.06c-.507.311-1.031.1-1.665.18l-.92-.921c-.623-.076-.728.8-1.318.907-.361.064-.5-.246-.725-.431l-.5.458-.273-.793c-.1-.146-.182-.1-.318.06-1 1.189-2.351 1.248-3.777 1.131-.91-.583-1.442-1.6-2.745-1.913-1.345-.327-1.896-2.518-1.277-3.862.507-1.1 1.122-2.115.24-3.358a1.807 1.807 0 0 1-.007-1.515c.545-1.171.432-2.466.847-3.654.385-1.1.612-2.268 1.044-3.352a3.01 3.01 0 0 0 .31-.986A7.975 7.975 0 0 1 4.234.488C4.661-.231 5.4.066 6.174.036" class="cls-1" data-name="Fill 271" transform="translate(116.66 100.125)"/>
    <path id="Fill_273" d="M20.268 16.9l-.473-.4c-.11.3-.2.559-.316.864-1.385-.592-2.512.408-3.775.644a20.5 20.5 0 0 1-2.88.363c-.138-.014-.347-.126-.4-.072-.594.607-1.366.31-2.042.465-.581.133-1.093-.783-1.643-.04-1.1-.911-2.4-.26-3.592-.419a16.956 16.956 0 0 0-2.2-.018l-.647-.649c.165-.294.592-.468.4-.955-.626-.436-1.405.007-2.077-.274-.62-.547-.941-1.128-.214-1.833.159-.154.406-.288.457-.475.48-1.74 1.984-1.816 3.35-2.038a14.8 14.8 0 0 0 3.7-1.355c.578-1.52-.293-2.7-.318-3.99-.025-1.2.286-2.444-.392-3.615-.161-.278-.27-.941.149-1.223.698-.471.627-1.526 1.427-1.821a1.283 1.283 0 0 1 1.211.273c.4.3.054.94.632 1.033.453.072.669-.288.87-.559a1 1 0 0 1 1.2-.3 7.167 7.167 0 0 1 1.408.834c.663-.794 1.167.126 1.5.331a9.985 9.985 0 0 1 1.425.879c.446.388.84.836 1.265 1.248a1.641 1.641 0 0 1 .511.91c.059.282.353.372.088.823-.285.487.6.108.784.624.75 2.066 2.07 3.866 2.9 5.908a1.66 1.66 0 0 1 .069 1.213 6.243 6.243 0 0 1-2.377 3.624" class="cls-1" data-name="Fill 273" transform="translate(48.074 49.381)"/>
    <path id="Fill_275" d="M7.752 0c1.921.109 1.921.109 2.234 2.194a3.585 3.585 0 0 1 2.24-1.332c.318.844.757 1.665 1.939 1.389a.811.811 0 0 1 .556.239c.886.751 1.23 1.958 2.2 2.64-.047 1.442.932 2.853.4 4.246-.563 1.478-.705 3.067-1.514 4.491a20.5 20.5 0 0 1-3.572 4.842 1.889 1.889 0 0 0-2.16.911l-.514-.458c-1.448 1.455-1.816 3.713-3.6 4.854-.7.338-1.12-.565-1.626-.381-.663.24-1.1-.606-1.715-.206a2.222 2.222 0 0 1-1.591.1c-.517-.676.742-.98.2-1.594-.4-.083-.6.63-1.143.208a7.157 7.157 0 0 1 .76-4.2c.6-1.526 1.448-3.032 1.373-4.765-.027-.621.4-1.031.632-1.519.679-1.437 1.155-2.938 1.7-4.415.685-1.858.889-3.891 2-5.627C6.911 1.063 7.321.6 7.752 0" class="cls-1" data-name="Fill 275" transform="translate(52.567)"/>
    <path id="Fill_277" d="M4.243 17.429c-.384.446.057.989-.392 1.3a.878.878 0 0 1-1.084-.795c.166-1.538-.853-2.231-1.842-3a8.791 8.791 0 0 1-.79-.78c-.408-.909.215-1.621.459-2.407.331-.233.7-.091 1.047-.093.356.188 0 .97.764.852.5-.172.69-.909.692-1.129a7.373 7.373 0 0 1 .96-3.629c-.643-1.387.409-2.576.46-3.89A5.532 5.532 0 0 1 6.2.33C6.589-.1 7.014.159 7.419 0c-.03.761.911 1 .42 2.256.8-.875.769-1.8 1.507-1.736a7.909 7.909 0 0 1 3.478.652c.889.572 2.477.819 2.369 2.474a.5.5 0 0 0 .179.362c1.7 1.318 1.827 3.39 2.466 5.2a13.28 13.28 0 0 1 .94 4.512c0 .885-.915 1.549-.424 2.417-.5.788-1.416 1.161-1.561 2.308-1.806-1.488-3.584.34-5.306-.183-.395.194-.235.556-.4.805a.553.553 0 0 1-.685.012c-.742.265-.326.867-.818.948-.242-.142-.166-.38-.183-.614-.453-.523-1.114-.029-1.633-.307-.253-.254-.514-.516-.783-.783-.76.486-.9 1.349-1.289 2.161a1.221 1.221 0 0 1-.752-1.3c.057-.657.1-1.342-.7-1.757" class="cls-1" data-name="Fill 277" transform="translate(70.329 105.443)"/>
    <path id="Fill_279" d="M17.18 21.913c-.27-.425-.11-.783-.451-.929-.46.479-.016 1.134-.277 1.7l-.784.079v-2.15c-.411 1.267-2.244.823-2.464 2.133-.337-.522-.85-.47-1.362-.425-.45.312 0 .858-.326 1.222a3.369 3.369 0 0 1-1.492.057c-.349-.463-.083-1-.171-1.494a3.249 3.249 0 0 0-1.68-1.263c.22-.363-.068-.942.052-1.062.536-.539.088-1.464.9-1.893.747-.4-.144-1.471.641-1.941-.853-.934.4-1.744.145-2.72a11.143 11.143 0 0 1-.05-2.778c-.4-.2-.419.134-.623.209-.589.035-.008-.678-.447-.763-.1.066-.253.113-.294.211a6.344 6.344 0 0 0-.762 4.054A4.249 4.249 0 0 1 7.6 17.6c-.171.543.864.722.162 1.263-.39.3.15 1.056-.5 1.35.261.459.332 1.023.774 1.382-.083.235-.268.253-.486.265a1.074 1.074 0 0 1-1.254-.92c-.12-.561.206-1.166-.175-1.709-.272-.389.2-.923-.257-1.317a.645.645 0 0 1 0-.628c.752-.581.148-1.074.037-1.662a2.584 2.584 0 0 1 .211-1.891 2.958 2.958 0 0 0-.227-2.64c-.206-.5-.652-.209-.856-.515.6-.738.351-1.576.337-2.325a.565.565 0 0 0-.637-.16c-.07.664-.913 1.247-.237 1.989-.581.513-.988 1.346-2.1 1.047a9.538 9.538 0 0 1 .41-1.449 2.9 2.9 0 0 0 .369-1.4c-.084-.6.648-.954.455-1.6-.2-.661.365-.715.747-1.01s-.087-1.106.545-1.443c-.361-.317-.741-.118-1.112-.17-.377.5-.107 1.2-.73 1.72-.916.757-.79.88-1.362 3.049a19.473 19.473 0 0 1-.938 2.344C-.251 10.421-.089 9.451.3 8.521c.325-.78.5-1.6.756-2.364.243-.712.114-1.771 1.1-2.219.667-.3.541-1.319 1.275-1.634.242.257.469.576 1.058.292l-.834-1.037a1.038 1.038 0 0 1 1.53.275C5.949.645 7.561 1.011 8.362.039c.7.02.86.628 1.32.922.091-.267.18-.525.273-.791.3-.206.592.692.99-.02.114-.2.846-.174 1.248-.069.313.082.577.422.819.686.347.379.864-.008 1.233.275-.49.729.122 1.2.359 1.732.342.76 1.523.026 1.89 1.221.019.1-.628.261-.393.6.856 1.251.432 2.9 1.311 4.135.07.1-.045.323.021.432.468.777-1.205 1.54-.01 2.306a7.812 7.812 0 0 1-.047 2.432 10.338 10.338 0 0 0-.394 3.391 2.845 2.845 0 0 0 .082.463c.436.073.541-.361.765-.561.155-.14-.1-.566.468-.633.013 1.858.309 3.722-1.115 5.35" class="cls-1" data-name="Fill 279" transform="translate(44.502 142.829)"/>
    <path id="Fill_281" d="M8.436 11.877c.017-.382.016-.6-.2-.738-.613-.378-.737.824-1.377.363-.154-.05-.2-.158-.1-.258.508-.508 1.273-1.1.605-1.8-.764-.811.474-1.112.236-1.704.7-.191 1.259-1.027 2.115-.463.175.116.284.346.736.234a12.8 12.8 0 0 0 3.708-5.776A7.239 7.239 0 0 1 15.335 0c2.64 1.786 2.64 1.786 3.607 1.347.81 1.093 1.635 2.194 1.507 3.683a2.362 2.362 0 0 0 .458 1.594c-.763.942-.127 1.848.212 2.651.428 1.01.046 2.016.282 2.993.029.123.2.212.339.352-.61.969-.867 2.174-2.039 2.955-.987-.194-2.152.309-3.277-.249a20.567 20.567 0 0 0-3.435-.827 19.329 19.329 0 0 1-3.013-1.507c-.943.2-1.5 1.066-2.214 1.688a5.924 5.924 0 0 0-3.494 1.286c-1.107.234-2.328-.313-3.368.513L0 15.308c1.825.386 1.728.173 4.241-.983 1.55-.712 2.5-2.255 4.195-2.447" class="cls-1" data-name="Fill 281" transform="translate(96.653 4.021)"/>
    <path id="Fill_283" d="M1.884 16.1c-.064.561-.1.912-.139 1.214-.135.2-.213.162-.352 0-.231-.274-.52-.465-.491-.919.051-.813-.011-1.632.022-2.446a2.467 2.467 0 0 0-.46-1.811c-.656-.766-.339-1.646-.464-2.43a4.64 4.64 0 0 0 1.43-2.842 10.86 10.86 0 0 1 .781-3.45c.251-.453.042-1.159.042-1.729.465-.477 1-.871 1.1-1.553h.925c.48.481-.016 1.146.313 1.675.349.15.768.243.756-.3C5.332.921 6.374.911 5.56 0c1.6.337 2.752.792 3.852.562.648.082.242.712.811.953a3.665 3.665 0 0 1 2.283 3.512 16.017 16.017 0 0 1-.9 5.643 2.9 2.9 0 0 1-2.776 2.4c-1.451.115-2.091 1-2.125 2.5-.013.585 0 1.171 0 1.735-.449.321-.448-.256-.672-.249-.591-.262-.783.755-1.43.35-.388-.282.126-.846-.275-1.186-.1.056-.28.112-.281.171-.012.646-.668 1.093-.524 1.808.039.193-.35.171-.567.179-.415-.24-.228-.644-.251-.982-.025-.361-.006-.724-.006-.96-.211-.389-.465-.238-.814-.339" class="cls-1" data-name="Fill 283" transform="translate(43.205 96.462)"/>
    <path id="Fill_285" d="M12.265 9.7l.942.349a.716.716 0 0 1-.18.809.9.9 0 0 0 .1 1.349c.877.752.728 1.37-.023 2.188a1.782 1.782 0 0 0-.343 2.031c-.408.607-.889-.359-1.107-.148-.532.515-1.112.259-1.666.307-.516.044-1.037.009-1.557.009H6.81a9.878 9.878 0 0 1-1.473-2 13.426 13.426 0 0 1-.61-1.763c-.184-.7.843-.99.243-1.74-.335-.419-.155-1.25-.207-1.9-1.031-.844-2.778-.246-3.455-1.767l.363-.362C1.43 6.7.8 6.725.672 6.093.6 5.758.511 5.075 0 4.86c.174-.361.348-.724.527-1.1.093.055.268.1.276.173a3.5 3.5 0 0 0 .049.873c.108.253.4.428.6.635.351-.124.191-.477.335-.735.5.078 1.073.858 1.483-.255l.394 1.035c.319-.03.8.071.991-.118.977-.959 2.17-1.773 2.676-3.1A6.844 6.844 0 0 1 9.224 0c.674.437.643.973.344 1.35a1.257 1.257 0 0 0-.1 1.5 6.641 6.641 0 0 0 1.116-1.281c.268-.543.462-1.027 1.158-.985.446.517.047 1.163.253 1.688.575.016.33-.369.415-.611a.968.968 0 0 1 1.487.218c.326.454.446 1.041.952 1.386a.806.806 0 0 1 .189 1.009 31.253 31.253 0 0 0-1.263 4.144c-.239.783-.721.969-1.506 1.288" class="cls-1" data-name="Fill 285" transform="translate(5.473 51.507)"/>
    <path id="Fill_287" d="M5.392 0c.446-.009.508.5.9.61l-.458.509a.481.481 0 0 0 .552.216c.5-.141.627-.807 1.236-.89.645.042.959.705 1.532 1 1.461.744 2.289 3.607 1.79 5.238a6 6 0 0 0 .131 3.937c-.041.2-.4 0-.644.144-.5.643.059 1.151.3 1.71-.157.625-.807.829-1.077 1.35a1.954 1.954 0 0 0-2.157-.507c-.8.29-1.144-.637-1.651-1.065l.392-.488c-.57-.472-.855-.013-1.107.3-.478.6-.313 1.627-1.386 1.86-.345.075-.114.663-.141 1.015a1.137 1.137 0 0 1-1.033 1.115c-.631-.318-.008-1.044-.533-1.356-1.028.751-.565 2.436-2.034 3.142.416-1.455.892-2.734 1.13-4.057s1.579-2.388.956-4.108a43.918 43.918 0 0 0-1.889 5 4.255 4.255 0 0 1 .239-2.649c.735-1.767 1.221-3.638 1.825-5.46.324-.974.641-1.955 1.043-2.9a3.068 3.068 0 0 0 .3-.766c.256-1.6.356-1.73 1.784-2.9" class="cls-1" data-name="Fill 287" transform="translate(128.21 15.135)"/>
</svg>
