<svg xmlns="http://www.w3.org/2000/svg" width="604.172" height="440.981" viewBox="0 0 604.172 440.981">
    <defs>
        <style>
            .cls-1{fill:#e82147}
        </style>
    </defs>
    <g id="Elemento_1">
        <path id="Fill_333" d="M468.449 440.981c-.251 0-.5-.008-.748-.024-1.263-.082-2.6-.12-4.214-.12-1.263 0-2.549.024-3.792.047-.735.014-1.466.027-2.2.036h-.2a33.817 33.817 0 0 1-8.217-1.355c-.679-.171-1.377-.346-2.067-.508a35.487 35.487 0 0 1-6.8-2.3 8.569 8.569 0 0 0-3.583-.869 6.448 6.448 0 0 0-1.024.081 6.322 6.322 0 0 1-.992.078 12.549 12.549 0 0 1-5-1.435l-.1-.046c-5.212-2.3-9.073-5.092-13.543-8.325l-.2-.147a128.64 128.64 0 0 0-1.384-.983l-.017-.012a33.834 33.834 0 0 1-5.236-4.235c-3.173-3.345-5.423-7-7.768-12.633a49.98 49.98 0 0 0-4.436-8.012 99.443 99.443 0 0 1-6.817-12.8l-.018-.038c-.469-.989-.955-2.015-1.469-3.085-1.742-3.626-3.181-7.424-4.572-11.1l-.009-.025c-.605-1.6-1.232-3.25-1.874-4.864-.338-.848-.693-1.7-1.036-2.532-.8-1.931-1.627-3.928-2.3-5.95a35.693 35.693 0 0 0-3.659-8.36 20.5 20.5 0 0 1-1.336-2.6 21.794 21.794 0 0 0-1.322-2.595 68.167 68.167 0 0 1-3.948-7.629c-.308-.662-.614-1.321-.926-1.979-.546-1.151-1.119-2.316-1.672-3.443l-.014-.029c-1.328-2.7-2.7-5.5-3.832-8.317a45.353 45.353 0 0 0-2.567-5.112 45.167 45.167 0 0 1-2.554-5.087 77.6 77.6 0 0 0-3.737-7.639l-.01-.018c-.447-.835-.909-1.7-1.352-2.551-1.952-3.764-4.292-6.116-7.364-7.4a12.91 12.91 0 0 1-5.376-4 1.093 1.093 0 0 1-.981.559 3.581 3.581 0 0 1-.771-.119 3.647 3.647 0 0 0-.766-.118 1.015 1.015 0 0 0-.844.4 2.6 2.6 0 0 0-2.087-.712H333.105a4.182 4.182 0 0 1-1.212-.137.3.3 0 0 1-.061.007.118.118 0 0 1-.1-.039c-.065-.077-.034-.257 0-.448l.014-.081c.033-.2.058-.4-.03-.5a.22.22 0 0 0-.179-.069 1.579 1.579 0 0 0-.641.222 5.829 5.829 0 0 1-2.537.4c-.436.009-.887.018-1.333.062-.1-.5-.19-.968-.3-1.523l-.007-.038-.217-1.1-.291.829-.318.9-.848-.561-.062-.041c-.581-.385-1.178-.78-1.831-1.21l.32-1.121.288-1.01a5.28 5.28 0 0 0-2.9-.9 6.311 6.311 0 0 0-2.156.409l3.047 1.446.778.369-.649 1.327-.341.7c-.214-.1-.306-.4-.394-.684-.112-.361-.228-.735-.594-.735a1.679 1.679 0 0 0-.873.395l.472 1.05.42.935c-.1.05-.186.109-.265.16a.72.72 0 0 1-.279.141.065.065 0 0 1-.031-.007c-.913-.482-1.83-.993-2.717-1.487l-.729-.406c-1.063 1.939-2.977 2.646-5.367 3.368l.249-.718.39-1.127a2.423 2.423 0 0 1-.571-.6 1.932 1.932 0 0 0-1.585-.994 2.121 2.121 0 0 0-.222.012c.144.784.284 1.53.419 2.254l.162.864c-.688.307-.993.529-1.088.794a.981.981 0 0 0 .143.768 1.422 1.422 0 0 1-.855.37c-.467 0-.795-.391-1.142-.806a2.037 2.037 0 0 0-1.22-.9l-.181 1.194-.022.143-.125.823a1.674 1.674 0 0 1-.628-.282 1.338 1.338 0 0 0-.708-.277 1.182 1.182 0 0 0-.716.3 12.339 12.339 0 0 1-2.245 1.289 12.165 12.165 0 0 0-2.27 1.308 2.541 2.541 0 0 1-1.6.621 5.187 5.187 0 0 1-2.045-.613l-.119-.053c-.029.377-.055.729-.084 1.132l-.065.881a3.6 3.6 0 0 0-.655-.06 6.689 6.689 0 0 0-2.779.827 12.835 12.835 0 0 1-1.487.616c-2.62.83-5.214 1.852-7.724 2.841-1.262.5-2.568 1.011-3.861 1.495-2.1.786-4.208 1.663-6.245 2.511l-.015.006c-1.3.543-2.65 1.1-3.984 1.635l-.256.1c-2.687 1.074-5.466 2.185-8.244 3.173-2.316.827-4.619 1.8-6.846 2.743-1.5.637-3.06 1.295-4.61 1.9-2.48.973-5 2.07-7.438 3.13l-1.541.67a8.3 8.3 0 0 0-.761.4 3.755 3.755 0 0 1-1.833.651 2.215 2.215 0 0 1-.536-.067.543.543 0 0 0-.127-.014 1.326 1.326 0 0 0-.782.32 13.767 13.767 0 0 1-5.087 2.528 16.369 16.369 0 0 0-4.335 1.931.922.922 0 0 1-.5.141.718.718 0 0 1-.147-.014 5.557 5.557 0 0 0-1.073-.106 9.634 9.634 0 0 0-4.577 1.578c-.589.322-1.2.656-1.812.925a70.152 70.152 0 0 1-11.736 3.957c-.186.044-.375.085-.564.125a7.27 7.27 0 0 0-1.943.609 2.435 2.435 0 0 1-1.169.235 2.375 2.375 0 0 0-.912.143 6.608 6.608 0 0 0-2.182 1.486.648.648 0 0 1-.475.253 1.173 1.173 0 0 1-.6-.259 1.271 1.271 0 0 0-.659-.276.8.8 0 0 0-.559.273 3.379 3.379 0 0 1-1.662.669 5.5 5.5 0 0 0-1.361.424 7.588 7.588 0 0 1-1.98.61 5.175 5.175 0 0 0-2.9 1.289 1.027 1.027 0 0 1-.717.2 2.434 2.434 0 0 1-.977-.2 2.325 2.325 0 0 0-.871-.3c-.311 0-.55.238-.853.847-.259.523-1.4.691-2.311.827h-.017l-.376.057a21.988 21.988 0 0 0-3.611 1.008 15.82 15.82 0 0 1-5.088 1.128h-.28a12.576 12.576 0 0 1-5.493 1.751 26.161 26.161 0 0 0-2.718.518c-.247.066-.493.144-.73.219a10.027 10.027 0 0 1-1.157.317 4.325 4.325 0 0 1-.828.066c-.139 0-.278 0-.417-.007s-.265-.006-.393-.006a3.119 3.119 0 0 0-2.008.566 1.428 1.428 0 0 1-.882.227c-.176 0-.357-.013-.549-.027s-.4-.028-.6-.028a1.963 1.963 0 0 0-1.53.582.479.479 0 0 1-.344.094 2.614 2.614 0 0 1-1.23-.361 1.154 1.154 0 0 0-.542-.242.17.17 0 0 0-.126.047c-.08.081-.077.251-.075.416s0 .315-.076.357a1.125 1.125 0 0 1-.517.094H153.375a1.237 1.237 0 0 0-.508.082 11.175 11.175 0 0 1-4.611 1.036 10.321 10.321 0 0 1-1.32-.085 12.192 12.192 0 0 0-1.569-.1 28.178 28.178 0 0 0-4.351.454 28.042 28.042 0 0 1-4.387.459h-.375a5 5 0 0 0-1.03.146 5.022 5.022 0 0 1-1.04.148 1.841 1.841 0 0 1-1.159-.381 3.545 3.545 0 0 1-1.66.382 9.716 9.716 0 0 1-1.8-.231 9.5 9.5 0 0 0-1.8-.232 3.819 3.819 0 0 0-.844.088 6.209 6.209 0 0 0-.937.324 3.634 3.634 0 0 1-1.227.351.814.814 0 0 1-.326-.061 9.747 9.747 0 0 0-3.654-.58 25.448 25.448 0 0 1-1.368-.062c-1.148-.095-2.309-.274-3.433-.448-.512-.079-1.037-.161-1.556-.233a1.97 1.97 0 0 0-.244-.014c-.172 0-.349-.007-.4-.089a1.472 1.472 0 0 0-1.369-.671c-.125 0-.249.006-.373.012H112c-.116.005-.226.01-.334.01a1.645 1.645 0 0 1-.555-.075 10.132 10.132 0 0 0-2.324-.434 7.406 7.406 0 0 1-3.139-.819c-.2-.12-.4-.237-.595-.352a9.15 9.15 0 0 1-2.487-1.813l-.17.364-.6 1.282a11.96 11.96 0 0 0-3.383-1.611c-1.884-.67-3.832-1.363-5.147-3.436H90.65c-.11-.2-.211-.421-.309-.638-.194-.431-.362-.8-.531-.8h-.162a3.389 3.389 0 0 1-2.5-.628 2.489 2.489 0 0 1-.494-1.913c.011-.239-.375-.5-.958-.895-.331-.224-.743-.5-1.176-.844.343 1 .54 1.576.76 2.223l.255.75c-.432-.287-.818-.54-1.192-.784-.784-.513-1.454-.951-2.089-1.414-.185-.135-.374-.267-.564-.4a8.407 8.407 0 0 1-1.951-1.676 5.013 5.013 0 0 0-1.264-1.074 4.307 4.307 0 0 1-1.386-1.267 13.531 13.531 0 0 0-2-2.678 7.9 7.9 0 0 1-.836-1.017 5.428 5.428 0 0 0-1.519-1.561 3.222 3.222 0 0 1-.959-1.852 10.138 10.138 0 0 0-.337-1.017l.541-.585.3-.329.424.376.658.583c-.035-.259-.048-.485-.06-.683a1.624 1.624 0 0 0-.165-.811 7.208 7.208 0 0 0-3.052-2.195l-.206-.1-.018-.009c-.5-.241-1.12-.541-1.291-.97a2.5 2.5 0 0 1-.093-1.011 2.437 2.437 0 0 0-.1-1.022 1.742 1.742 0 0 0-.719-.612c-.294-.177-.571-.343-.568-.526a7.454 7.454 0 0 0-.441-2.286 5.555 5.555 0 0 1-.33-3.053 13.447 13.447 0 0 1-.715-6.174 27.36 27.36 0 0 0 .014-3.038c-.416-5.962 1.376-11.551 3.087-16.321a59.3 59.3 0 0 1 9.106-16.3c.676-.87 1.354-1.76 2.01-2.62l.017-.022c1.958-2.569 3.983-5.225 6.187-7.688a137.228 137.228 0 0 0 10.979-14.442 17.347 17.347 0 0 0 1.239-2.294 15.97 15.97 0 0 1 1.444-2.6 17.685 17.685 0 0 0 2.266-5.02 25.922 25.922 0 0 0 .858-4.216c.033-.225.065-.446.1-.666a6.931 6.931 0 0 0 .03-1.293 3.455 3.455 0 0 1 .654-2.666c.2-.222.046-.807-.063-1.234l-.024-.1a3.56 3.56 0 0 0-.265-.648 2.353 2.353 0 0 1-.3-.869c-.368-7.08-4.013-13.451-10.264-17.939-2.144-1.538-4.414-2.915-6.61-4.246a158.037 158.037 0 0 1-4.274-2.655c-2.435-1.584-4.982-3.064-7.445-4.5-2.669-1.551-5.428-3.155-8.049-4.893-2.669-1.77-5.492-3.4-8.222-4.982-1.28-.74-2.6-1.5-3.895-2.276-1.2-.716-2.445-1.411-3.647-2.084a56.4 56.4 0 0 1-9.746-6.377 6.73 6.73 0 0 1-3.178-1.785 9.489 9.489 0 0 0-2.153-1.484 13.189 13.189 0 0 1-3.343-2.429 19.552 19.552 0 0 0-2.263-1.842 33.26 33.26 0 0 1-4.333-3.649 72.697 72.697 0 0 0-1.9-1.752 18.573 18.573 0 0 1-1.013-.989 8.3 8.3 0 0 0-2.649-2.057 3.862 3.862 0 0 1-1.955-1.957 7.274 7.274 0 0 0-2.029-2.631 16.87 16.87 0 0 1-1.025-1.029 55.462 55.462 0 0 1-11.354-19.227c-.385-1.155-.677-2.354-.959-3.513a27.457 27.457 0 0 0-1.78-5.553 10.5 10.5 0 0 0-.308-4.183 13.444 13.444 0 0 1-.415-3.271c.034-.9-.014-1.819-.06-2.712a16.848 16.848 0 0 1 .184-4.652c.25-1.071.418-2.185.579-3.263a18.31 18.31 0 0 1 2.133-7.211C3.625 92.1 8.4 83.533 10.473 80.37c2.451-3.729 5.661-6.648 9.3-9.807a14.81 14.81 0 0 1 6.256-3.489 16.485 16.485 0 0 0 2.348-.777 17.829 17.829 0 0 1 2.312-.776l.161-.038a9.991 9.991 0 0 1 2.3-.369 4.425 4.425 0 0 1 1.682.332.707.707 0 0 0 .268.048 2.8 2.8 0 0 0 .889-.228 3.443 3.443 0 0 1 .912-.246 33.838 33.838 0 0 1 2.09-.074 17.562 17.562 0 0 1 1.777.083 3.574 3.574 0 0 1 .895.26 2.987 2.987 0 0 0 1.043.266 1.38 1.38 0 0 0 .926-.372 1.884 1.884 0 0 0 1.443.551 7.378 7.378 0 0 0 .745-.051 7.234 7.234 0 0 1 .752-.054 2.245 2.245 0 0 1 .708.1 9.8 9.8 0 0 1 1.5.687 10.13 10.13 0 0 0 1.452.671c1.018.342 2.072.625 3.091.9.639.172 1.3.349 1.946.54a5.475 5.475 0 0 1 1.489.651 21.621 21.621 0 0 0 5.822 2.5c.972.308 1.976.626 2.936 1.007 1.146.456 2.334.868 3.483 1.267a49.3 49.3 0 0 1 5.926 2.35 39.2 39.2 0 0 0 4.275 1.734c.785.283 1.6.576 2.381.892.939.38 1.88.806 2.789 1.217 1.326.6 2.7 1.221 4.093 1.713a89.909 89.909 0 0 1 9.989 4.465c1.28.636 2.6 1.293 3.912 1.912a1653.69 1653.69 0 0 1 17.619 8.446c4.3 2.093 8.667 4.234 12.889 6.3l.015.007c5.84 2.864 11.879 5.825 17.836 8.7a48.675 48.675 0 0 0 7.818 3.186 10.232 10.232 0 0 1 1.74.738 8.907 8.907 0 0 0 1.872.765c.678.162 1.385.341 2.009.5 1.226.309 2.491.629 3.748.89a16.72 16.72 0 0 0 1.787.236 9.709 9.709 0 0 1 2.818.549 20.511 20.511 0 0 0 4.254 1.107 26.049 26.049 0 0 1 3.4.786 6.044 6.044 0 0 0 1.878.295 9.5 9.5 0 0 0 5.9-2.465 19.764 19.764 0 0 0 1.561-1.519c.385-.4.781-.818 1.2-1.2 3.657-3.352 4.658-7.358 3.059-12.246-.086-.264-.175-.527-.263-.791a16.038 16.038 0 0 1-1.161-5.658 2.863 2.863 0 0 1-.689-2.369 2.886 2.886 0 0 0-.668-2.351 19.231 19.231 0 0 0 .037-2.97 12.787 12.787 0 0 1 .449-4.868 13.5 13.5 0 0 0 .914-5.99 48.333 48.333 0 0 1 .354-11.193c.182-1.659.369-3.366.473-5.044a54.115 54.115 0 0 1 2.255-11.31 44.031 44.031 0 0 1 1.688-4.6c.366-.89.743-1.809 1.077-2.729a26.9 26.9 0 0 1 3.59-6.128c.34-.479.688-.97 1.021-1.455 3.149-4.579 7.421-8.521 13.446-12.406a50.875 50.875 0 0 1 11.966-5.937 25.681 25.681 0 0 1 3.053-.713c.813-.155 1.652-.315 2.438-.533a11.137 11.137 0 0 1 2.784-.29 8.584 8.584 0 0 0 2.909-.38 10.142 10.142 0 0 1 3.69-.626c.51 0 1.044.026 1.683.082 3.17.276 6.281.75 9.978 1.377a38.807 38.807 0 0 1 7.525 2.368c.586.229 1.18.462 1.766.683a43.776 43.776 0 0 1 11.211 6.077 7.083 7.083 0 0 0 .6.4 3.59 3.59 0 0 1 1 .784q.655.846 1.318 1.689c1.674 2.135 3.4 4.342 4.89 6.651a45.819 45.819 0 0 0 11.175 11.859 6.728 6.728 0 0 1 1.241 1.425c.174.242.351.487.536.715.38-.134.716-.276 1.042-.413a5.075 5.075 0 0 1 1.763-.521 5.249 5.249 0 0 0 1.776-.437c.248-.094.5-.19.762-.267a5.061 5.061 0 0 1 1.414-.2 4.522 4.522 0 0 1 1.368.2.848.848 0 0 0 .26.042 1.532 1.532 0 0 0 .778-.3 1.548 1.548 0 0 1 .764-.3.957.957 0 0 1 .582.224.27.27 0 0 0 .165.046 2.808 2.808 0 0 0 .907-.312c.2-.091.4-.185.582-.244s.384-.117.574-.17a4.747 4.747 0 0 0 1.263-.481.63.63 0 0 1 .337-.108 1.059 1.059 0 0 1 .62.315 1.093 1.093 0 0 0 .648.32.764.764 0 0 0 .445-.165 2.174 2.174 0 0 1 1.161-.261 4.357 4.357 0 0 0 .8-.09 10.118 10.118 0 0 0 .993-.316 8.446 8.446 0 0 1 1.183-.357 2.16 2.16 0 0 1 .412-.039 4.5 4.5 0 0 1 1.454.329 5.942 5.942 0 0 0 1.025.288.551.551 0 0 0 .081.006 2.06 2.06 0 0 0 1.069-.591 3.138 3.138 0 0 1 1.079-.66 10.261 10.261 0 0 1 1.267-.208 7.4 7.4 0 0 0 1.995-.437 3.946 3.946 0 0 1 1.432-.319 1.79 1.79 0 0 1 1.832 1.562c.01.044.127.064.368.064.175 0 .391-.01.618-.021s.492-.023.7-.023c-.308-.642-.527-1.1-.757-1.573a4.766 4.766 0 0 0 .9-.544 2.54 2.54 0 0 1 1.382-.627 1.627 1.627 0 0 1 1.108.532c.137-.221.283-.329.442-.329a.786.786 0 0 1 .416.178l.031.021a.676.676 0 0 0 .327.159h.018c.318-.039.56-.331.816-.639.274-.33.557-.671.941-.671a1.408 1.408 0 0 1 .946.564c.271-.113.545-.235.81-.353a12.5 12.5 0 0 1 2.1-.794.34.34 0 0 1 .083-.01 1.425 1.425 0 0 1 .622.262 1.459 1.459 0 0 0 .632.269.332.332 0 0 0 .085-.011 1.608 1.608 0 0 0 .515-.32 1.145 1.145 0 0 1 .644-.334.722.722 0 0 1 .535.32.584.584 0 0 0 .424.262.63.63 0 0 0 .4-.223l.04-.038c.1-.1.191-.184.279-.184a.143.143 0 0 1 .093.037 1.563 1.563 0 0 1 .387.778c.04.133.08.269.129.391 2.378-.757 2.378-.757 2.953-2.858.188.089.38.17.565.248a5.552 5.552 0 0 1 1.19.616 3.852 3.852 0 0 1 .773.878c.1.137.191.266.287.384.387-.639.782-1.3 1.164-1.929a18.12 18.12 0 0 0 3.953.782c1.449 0 2.007-.776 3.122-2.829h2.386l.244.52.025.052.36.768c.443-1.77.443-1.77 2.221-2.743a.361.361 0 0 1 .093-.014.137.137 0 0 1 .11.045c.076.089.045.295.011.513v.029c-.035.234-.058.436.024.531a.178.178 0 0 0 .141.056 1.451 1.451 0 0 0 .639-.271 2.464 2.464 0 0 1 1.316-.39 2.935 2.935 0 0 1 1.555.489 1.542 1.542 0 0 0 .811.186 3.1 3.1 0 0 0 1.051-.189c.2-.077.43-.141.648-.2.988-.28 2.008-.569 1.837-2.172a.475.475 0 0 1 .138-.348.742.742 0 0 1 .567-.239 1.392 1.392 0 0 1 .779.285 5.342 5.342 0 0 0 2.4.626c.436.049.883.1 1.332.185l-.583-1.731-.082-.243a8.6 8.6 0 0 0 2.743.656 3.086 3.086 0 0 0 2.372-1.1.4.4 0 0 1 .308-.14 1.43 1.43 0 0 1 .487.137l.071.028a1.856 1.856 0 0 0 .7.169 1.263 1.263 0 0 0 .665-.2 10.131 10.131 0 0 1 3.548-1.044c.581-.1 1.181-.2 1.783-.344.051-.351.149-1 .241-1.6.061-.029.113-.06.16-.088a.433.433 0 0 1 .193-.082 2.684 2.684 0 0 0 .3.015 25.675 25.675 0 0 0 4.825-.715c1.478-.452 3.081-.9 5.045-1.413 4.422-1.155 8.812-2.659 13.058-4.114 3.342-1.145 6.8-2.33 10.246-3.334l2.062-.6c4.793-1.4 9.749-2.854 14.7-4.063 4.574-1.116 9.44-2.331 14.218-3.836a40.144 40.144 0 0 1 5.358-1.162c.907-.154 1.845-.313 2.76-.5.417-.086.831-.212 1.232-.334a13.363 13.363 0 0 1 1.3-.347c.992-.2 2.008-.356 2.991-.511.431-.068.862-.136 1.291-.207s.9-.128 1.338-.181a14.805 14.805 0 0 0 2.932-.559 26.042 26.042 0 0 1 4.6-.957 25.458 25.458 0 0 0 4.781-1.015 8.888 8.888 0 0 1 2.7-.346 9.722 9.722 0 0 0 2.978-.4 8.416 8.416 0 0 1 2.246-.336 6.032 6.032 0 0 0 2.655-.545 6.056 6.056 0 0 1 2.549-.643 6.789 6.789 0 0 0 2.283-.5 7.017 7.017 0 0 1 2.812-.419 9.231 9.231 0 0 0 2.839-.35 1.228 1.228 0 0 1 .4-.061 5.885 5.885 0 0 1 2.325.842l.04.021a3.876 3.876 0 0 0 1.769.546 2.316 2.316 0 0 0 1.616-.714 37.157 37.157 0 0 1 6.847-2.73.1.1 0 0 1 .065.015 1.8 1.8 0 0 0 1.276.581 4.151 4.151 0 0 0 1.6-.486A9.64 9.64 0 0 1 520.393 0c-.067.271-.122.5-.172.712V.73c-.088.37-.158.662-.239.953-.07.256-.151.508-.254.828l-.167.524c1.673-.551 1.657-1.732 1.5-2.894.237.136.458.283.653.414a1.9 1.9 0 0 0 .646.352.09.09 0 0 0 .053-.014 1.743 1.743 0 0 1 1-.329 3.974 3.974 0 0 1 1.187.261l.093.03a.781.781 0 0 0 .238.035A2.926 2.926 0 0 0 526 .564a4.87 4.87 0 0 1 .848-.312 3.065 3.065 0 0 1 .674-.07 4.283 4.283 0 0 1 .725.065 1.569 1.569 0 0 1 .627.36 1.293 1.293 0 0 0 .723.367.879.879 0 0 0 .659-.427.706.706 0 0 1 .551-.337 1.154 1.154 0 0 1 .63.284l.054.039a.992.992 0 0 0 .485.243.269.269 0 0 0 .2-.094 1.528 1.528 0 0 1 1.105-.565 2.6 2.6 0 0 1 1.219.451 2.861 2.861 0 0 0 1.083.439c1.052.1 2.194.314 2.44 1.677.017.106.481.241.828.241a.574.574 0 0 0 .293-.059c.1-.062.194-.135.286-.2a1.259 1.259 0 0 1 .7-.344.709.709 0 0 1 .481.223 9 9 0 0 0 2.6 1.524 8.419 8.419 0 0 1 2.768 1.684 2.312 2.312 0 0 0 1.356.77h.051c.049 0 .1-.005.143-.005a2.014 2.014 0 0 1 1.637 1.054l.01.014c.052.068.1.135.155.2a12.039 12.039 0 0 0 2.21 2.2c.217.162.417.338.611.508a3.556 3.556 0 0 0 2.277 1.13 2.425 2.425 0 0 1 1.449.97 4.094 4.094 0 0 0 1.5 1.158 48.994 48.994 0 0 1 10.306 5.62c.718.489 1.454.974 2.165 1.444a56.789 56.789 0 0 1 7.106 5.244c.677.616 1.382 1.232 2.063 1.827 1.1.961 2.233 1.949 3.3 2.983a38.65 38.65 0 0 1 4.3 5.3c.887 1.237 1.8 2.517 2.8 3.69 2.839 3.334 4.709 7.231 6.518 11l.009.02c.374.779.761 1.585 1.151 2.374a59.935 59.935 0 0 1 4.341 13.006c.211.9.346 1.841.477 2.75a15.91 15.91 0 0 0 1.508 5.556.587.587 0 0 1 .006.347 12.057 12.057 0 0 0 .3 4.611 15.617 15.617 0 0 1 .422 3.548c-.048 1.343-.036 2.705-.026 4.022.011 1.334.022 2.714-.028 4.071a8.563 8.563 0 0 1-.328 1.835 11.671 11.671 0 0 0-.307 1.388c-.034.248-.053.492-.071.729a4.583 4.583 0 0 1-.565 2.2 3.323 3.323 0 0 0-.33 1.335 4.472 4.472 0 0 1-.363 1.537c-.184.366.033.911.263 1.488a5.672 5.672 0 0 1 .329.991 1.911 1.911 0 0 1-.162 1.479 1.316 1.316 0 0 1-1.03.423 7.945 7.945 0 0 1-1.111 2.721 7.4 7.4 0 0 0-1 2.357 13.229 13.229 0 0 1-2.013 4.667 14.44 14.44 0 0 0-1.851 3.97 3.587 3.587 0 0 0-1.429 2.138 4.348 4.348 0 0 1-1.246 2.085 7.445 7.445 0 0 0-1.653 2.3 13.584 13.584 0 0 1-.913 1.512c-.663.9-1.4 1.774-2.1 2.618-.372.443-.749.892-1.112 1.339a5.7 5.7 0 0 1-.143.167c-.2.224-.418.474-.378.649.377 1.646-.61 2.537-1.564 3.4-.223.2-.453.408-.662.623l-.8.827-.1.1c-1.472 1.521-2.994 3.094-4.584 4.539a81.724 81.724 0 0 1-10.283 8.275 29.315 29.315 0 0 0-3.1 2.441 23.379 23.379 0 0 1-3.863 2.9c-1.7.935-3.324 2.019-4.9 3.066-1.034.69-2.1 1.4-3.178 2.063-2.685 1.65-5.488 3.2-8.2 4.7q-1.165.645-2.329 1.292c-1.745.976-3.546 1.9-5.287 2.8-1.974 1.018-4.01 2.068-5.966 3.187-.768.44-1.526.936-2.259 1.416a24.017 24.017 0 0 1-4.261 2.393 37.874 37.874 0 0 0-5.827 3.1c-.99.6-2.014 1.227-3.051 1.788a80.536 80.536 0 0 0-7.532 4.834c-.981.683-1.993 1.386-3 2.058a39.266 39.266 0 0 0-5.866 5.158c-.674.678-1.369 1.376-2.07 2.044-.229.218-.455.444-.674.663a10.886 10.886 0 0 1-2.711 2.175 6.834 6.834 0 0 0-2.807 3.343l-.119.253a52.981 52.981 0 0 0-3.3 8.183 8.733 8.733 0 0 0-.223 2.133 12.161 12.161 0 0 1-.108 1.613 2.984 2.984 0 0 0 .046.864 1.774 1.774 0 0 1-.13 1.345 1.5 1.5 0 0 1-1.072.466c-.122.014-.213.827-.216 1.262a206.444 206.444 0 0 0 0 3.048c0 1.422.009 2.892-.022 4.341a5.647 5.647 0 0 0 .424 1.942 4.141 4.141 0 0 1 .294 2.693 3.58 3.58 0 0 1 .85 2.765 4.973 4.973 0 0 0 .443 2.35 7.414 7.414 0 0 1 .613 3.126 13.106 13.106 0 0 0 .24 2.141 24.673 24.673 0 0 0 .8 2.576 15.012 15.012 0 0 1 1 4.025 14.677 14.677 0 0 0 1.025 4.15 18.307 18.307 0 0 1 .921 3.2 14.481 14.481 0 0 0 1.152 3.374 14.528 14.528 0 0 1 1.151 3.367 52.014 52.014 0 0 0 1.627 6.495v.016c.233.784.474 1.6.7 2.4.056.2-.132.478-.33.767a4.54 4.54 0 0 0-.278.438c.334.115.743.255 1.256.429a20.607 20.607 0 0 0 1.343 6.4 4.135 4.135 0 0 1 .15 1.588 6.512 6.512 0 0 0 .032 1.16 7.892 7.892 0 0 0 .318 1.2 7.026 7.026 0 0 1 .335 1.331c.019.174.035.346.05.516a5.093 5.093 0 0 0 .628 2.389 6.047 6.047 0 0 1 .715 2.846 5.515 5.515 0 0 0 .749 2.872c.212.341.012.7-.181 1.047-.276.5-.562 1.01.307 1.5.619.349.566.936.514 1.5a1.577 1.577 0 0 0 .114 1.022 6.417 6.417 0 0 1 .871 3.093 9.745 9.745 0 0 0 .358 2.033 26.254 26.254 0 0 1 .8 3.542 6.12 6.12 0 0 1 .044 1.194 3.083 3.083 0 0 0 .581 2.339c-.292.154-.447.307-.478.471-.038.206.134.4.3.591a1.009 1.009 0 0 1 .3.508 3.678 3.678 0 0 0 .2.825 4.09 4.09 0 0 1 .2.757 11.36 11.36 0 0 1 .043 1.766v.136a1.521 1.521 0 0 1-.108.408c-.055.153-.1.284-.06.319 1.123.889 1.21 2.125 1.294 3.32a6.234 6.234 0 0 0 .458 2.308 5.844 5.844 0 0 1 .418 1.667A9.99 9.99 0 0 0 509 321.9c.1.348.227.7.351 1.045a6.058 6.058 0 0 1 .529 3.218 3.088 3.088 0 0 0 .679 2.134 4.5 4.5 0 0 1 .656 3.2v.056a4.635 4.635 0 0 0 .25 2.076c.1.325.231.729.37 1.359a13.569 13.569 0 0 0 .673 2.019 8.47 8.47 0 0 1 .78 3.006 4.407 4.407 0 0 0 .456 1.6c.432 1.021.879 2.077-.285 3.163a7 7 0 0 0 .528.64c.1.12.2.228.271.317a3.773 3.773 0 0 1 .724 1.98 8.088 8.088 0 0 0 .19.942 3.733 3.733 0 0 1-.336 3.388l.6.138.446.1a1.1 1.1 0 0 0 .089.074c.071.055.145.112.152.176.1.794.2 1.589.292 2.385.143 1.19.29 2.421.457 3.645a8.872 8.872 0 0 1-.008 1.844 4.806 4.806 0 0 0 .667 3.526c.168.224.022.484-.148.785-.251.444-.535.948.126 1.492.167.136-.028.716-.215 1.277-.088.262-.177.53-.23.751.393.137.8.28 1.192.415a5.854 5.854 0 0 1-.671 2.1c-.562 1.214-1.093 2.36-.12 3.736a5.054 5.054 0 0 1-.849.231c-.964.2-1.96.416-1.829 2.108l.913-.449.581-.286c.079.06.167.114.252.166.169.1.313.192.309.274a27.612 27.612 0 0 1-.194 1.884l-.058.466c-.011.09-.032.206-.053.319a1.109 1.109 0 0 0-.045.4c.995.333.865.98.729 1.665a1.669 1.669 0 0 0 .247 1.653c.711.734.211 1.771-.272 2.775a8.689 8.689 0 0 0-.443 1.022 15.255 15.255 0 0 0-.609 3.264c-.039.377-.064.771-.088 1.152a8.115 8.115 0 0 1-.7 3.428 4.335 4.335 0 0 0-.451 2.115 3.943 3.943 0 0 1-.343 1.794l-.3.539a4.774 4.774 0 0 0-.915 3.183 8.918 8.918 0 0 0-1.636 3.564 10.628 10.628 0 0 1-1.207 3 2.014 2.014 0 0 1-.873.583 5.322 5.322 0 0 0-.49.244v3.474c-.2.118-.414.221-.622.321-.769.369-1.563.75-1.557 1.892a1.16 1.16 0 0 0-.632.636 1.427 1.427 0 0 0 .3 1.04c.243.433.494.88.223 1.33a2.564 2.564 0 0 0-.294.052 2.084 2.084 0 0 1-.4.06.308.308 0 0 1-.208-.059c-.05-.043-.1-.085-.144-.126-.2-.181-.376-.336-.576-.336-.174 0-.357.116-.576.367-.319.365-.241.523-.111.786.036.073.077.155.113.252a2.832 2.832 0 0 1-.4 2.321c-.11.159-.212.249-.279.249a.062.062 0 0 1-.045-.019 1.333 1.333 0 0 0-.845-.5c-.333 0-.537.324-.734.638a1.433 1.433 0 0 1-.479.552.989.989 0 0 0-.463.822c.471 1.87-.753 2.526-1.937 3.161-.181.1-.387.207-.573.317-3.6 2.117-3.711 2.121-6.5 2.226l-.171.006c0 .205-.009.417-.018.622a6.623 6.623 0 0 0 .037 1.388 1.872 1.872 0 0 1-1.029 2.036l-.947.573a61.861 61.861 0 0 1-5.607 3.14l-.435.205a21.587 21.587 0 0 1-6.273 2.22 32.405 32.405 0 0 0-3.891.82 22.824 22.824 0 0 1-5.619.934zm34.975-53.106c-.143.186-.3.367-.455.541a4.163 4.163 0 0 0-.858 1.24 10.417 10.417 0 0 0-.419 1.719 12.261 12.261 0 0 1-.341 1.492c-.24.751-.457 1.525-.668 2.273a24.718 24.718 0 0 1-2.417 6.3 1.841 1.841 0 0 0-.387 1.225c.319 1.463-.2 3.017-1.542 4.619a15.507 15.507 0 0 0-1.877 3.124 10.376 10.376 0 0 1-2.952 4.1l1.139 1.139c.287-.423.569-.814.841-1.193a19.757 19.757 0 0 0 1.523-2.337 39.382 39.382 0 0 1 2.1-3.428c1.648-2.49 3.353-5.064 3.6-8.291.008-.106.126-.2.251-.3a1.3 1.3 0 0 0 .226-.206 6.691 6.691 0 0 0 1.565-4.621 10.622 10.622 0 0 1 1.186-5.149 1.573 1.573 0 0 0-.522-2.252zm-11.481-54.2c-.17.337-.362.669-.531.962-.31.538-.554.962-.462 1.057a2.679 2.679 0 0 1 .572 2.353 6.1 6.1 0 0 0-.031.967c.014.185.031.373.048.562a7.572 7.572 0 0 1-.1 2.932 1.719 1.719 0 0 0 .259 1.3c.277.565.538 1.1-.144 1.68a2.338 2.338 0 0 1 .679 2.316 6.4 6.4 0 0 0-.031.9c.051.813.039 1.645.027 2.45-.005.356-.01.711-.01 1.066v3.08c0 3.379 0 6.859.012 10.279a4 4 0 0 0 .146.914c.033.139.066.277.093.416a24.075 24.075 0 0 1 .516-2.449 17.479 17.479 0 0 0 .547-2.871c.116-1.526.14-3.082.164-4.587a45.2 45.2 0 0 1 .574-7.794 9.278 9.278 0 0 0-.22-3.394 16.322 16.322 0 0 1-.285-1.942 57.075 57.075 0 0 0-1.595-9.216l-.033-.145zM325.224 284.7l.341.34c.395.394.834.833 1.223 1.226a3.544 3.544 0 0 0 .03-1.14c-.074-1.011-.158-2.157 1.415-2.652a3.076 3.076 0 0 0 2 .781 3.91 3.91 0 0 0 1.636-.4l-.185-.122c-.728-.482-1.372-.909-2.017-1.33l.5-.5a2.3 2.3 0 0 1-.182-.19c-.124-.139-.251-.282-.363-.282-.482.045-.96.069-1.38.069a3.545 3.545 0 0 1-2.116-.444 3.962 3.962 0 0 0-3.047-1.264 12.227 12.227 0 0 0-2.452.338c-.227.047-.449.093-.668.135a13.325 13.325 0 0 0-3.693 1.544c-.532.287-1.082.584-1.63.839-.137.064-.274.133-.41.2a4.3 4.3 0 0 1-1.295.491.473.473 0 0 1-.278-.163l-.022-.02a.57.57 0 0 0-.339-.179c-.119 0-.231.083-.343.255-.181.275-.337.561-.6 1.034-.14.257-.306.559-.517.937a2.522 2.522 0 0 1 .949-.185 4.508 4.508 0 0 1 1.487.322l.067.023a4.038 4.038 0 0 0 1.288.3 1.849 1.849 0 0 0 1.408-.706c.081 0 .831.407.858.648.077.736.567.815.774.815a.982.982 0 0 0 .48-.125 5.949 5.949 0 0 1 3.174-.665h.937a10.33 10.33 0 0 0 1.565-.1c.115-.712.216-1.357.244-1.537l.908.9.654.651-.382.134-.019.007-.03.011.029-.01zm259.521-176.727c-.412.8-.822 1.615-1.22 2.405-1.932 3.843-3.925 7.805-6.753 11.139-2.492 2.938-5.072 5.695-7.8 8.613a600.078 600.078 0 0 0-3.5 3.762c.166.017.311.044.438.068a1.927 1.927 0 0 0 .321.045.207.207 0 0 0 .138-.038q.767-.649 1.545-1.289c1.48-1.227 3.006-2.491 4.392-3.851a71.092 71.092 0 0 0 9.834-12.782c.193-.305.392-.611.591-.918a18.4 18.4 0 0 0 2.824-5.728c.168-.715-.149-.888-.428-1.04-.173-.094-.336-.184-.382-.386zm-41.116.5c-.146.2-.284.41-.417.616a4.775 4.775 0 0 1-1.041 1.271 3.61 3.61 0 0 1-1.1.472 2.672 2.672 0 0 0-1.213.591 9.942 9.942 0 0 1-3.169 2.059c-.25.12-.5.24-.749.364-.337 1.583-1.533 2.341-2.689 3.074a13.884 13.884 0 0 0-1.22.835c-.338.269-.678.535-1.019.8-.8.62-1.617 1.259-2.38 1.94a1.822 1.822 0 0 0-.414.85 4.655 4.655 0 0 1-.15.448 5.674 5.674 0 0 0 1.053-.605 2.838 2.838 0 0 1 1.591-.662 1.975 1.975 0 0 1 .531.076 1.282 1.282 0 0 0 .335.052c.428 0 .554-.322.688-.664a1.971 1.971 0 0 1 .245-.487c.172-.223.659-.289 1.089-.348.344-.047.64-.087.658-.2.164-1.084.873-1.452 1.624-1.84.209-.108.424-.22.625-.347l.179-.113a11.129 11.129 0 0 0 2.712-2.128 3.005 3.005 0 0 1 1.964-.965c.234-.046.475-.094.705-.162l-.27-.685c-.144-.366-.306-.776-.518-1.309h2.945v-2.591l-.157-.09c-.147-.084-.292-.166-.435-.25zM205.106 40.006c-2.029 1.093-2.944 2.983-3.828 4.81-.156.323-.315.65-.476.967a25.761 25.761 0 0 0-1.353 3.447 29.851 29.851 0 0 1-1.1 2.9 18.466 18.466 0 0 0-1.674 6.988 11.99 11.99 0 0 1-.476 2.518c-.409 1.548-.831 3.149-.02 4.8.107-.184.219-.363.329-.536a7 7 0 0 0 .656-1.208 1.92 1.92 0 0 0 .071-.737 2.505 2.505 0 0 1 .033-.626c.253-1.126.533-2.265.8-3.367.118-.48.234-.95.348-1.42s.26-.935.4-1.388a8.71 8.71 0 0 0 .585-3.819 43.627 43.627 0 0 0 1.835-4.758 29.573 29.573 0 0 1 3.045-6.913 7.659 7.659 0 0 0 .568-1.12c.084-.163.168-.355.257-.538zm335.814.959v.006a3.757 3.757 0 0 1-2.143 2.863 8.461 8.461 0 0 0-.747.5V46.3l.422.276.166.109c.4.264.779.513 1.159.747s.788.474 1.174.7l.512.3-.011.02c-.9 1.646-.9 1.646.217 2.456l.027.02.171.122c.416.294.933.66.984 1.044.095.69.326 1.011.727 1.011a1.691 1.691 0 0 0 .521-.113l.042-.014a1.5 1.5 0 0 1 .419-.1.385.385 0 0 1 .061 0l-.308-3.575c1.034-.67.665-1.353.309-2.013a2.611 2.611 0 0 1-.356-.9 3.137 3.137 0 0 0-.959-1.666.04.04 0 0 0-.029-.009 3.145 3.145 0 0 0-.767.406c-.2.122-.4.247-.583.346l-.563-1.212-.649-1.4 1.337.547.733.3a1.024 1.024 0 0 0 .08-.829c-.121-.237-.414-.308-.7-.377s-.559-.136-.609-.373a6.74 6.74 0 0 1-.063-1.668c.012-.293.024-.591.024-.915h-4.748l-.527-1.408-.124-.33c-.182 2.717-.182 2.717 1 3.749.067-.2.135-.4.2-.6s.146-.427.22-.648l.891.835.8.749 1.126-.627.017-.01.534-.3zm-313.194-7.429l-.556.5-.347.311c.168.193.323.367.443.5l.14.159-1.07.84-3.624 2.845c.037.047.1.117.17.184.176.183.374.39.335.455-.267.441-.574.866-.872 1.276-.279.386-.566.783-.82 1.191l-.2.318-.024.039c-1.1 1.753-2.232 3.566-1.244 5.9a8.544 8.544 0 0 0 1.335-1.236c.834-.89 1.622-1.731 2.937-1.731.095 0 .192 0 .291.014-.074-.189-.176-.388-.274-.581-.205-.4-.4-.779-.284-.956s.231-.363.347-.548a8.643 8.643 0 0 1 2.379-2.834 5.752 5.752 0 0 0 2.493-2.815c.3-1.037.884-1.147 1.622-1.287a5.021 5.021 0 0 0 1.123-.311l-4.3-2.238z" class="cls-1" data-name="Fill 333"/>
    </g>
</svg>
