<svg xmlns="http://www.w3.org/2000/svg" width="29" height="29" viewBox="0 0 29 29">
    <defs>
        <style>
            .cls-1{fill:#fff}
        </style>
    </defs>
    <g id="Fb" transform="translate(-762.5 -938)">
        <g id="Social_Icons_24px_Facebook" data-name="Social Icons – 24px / Facebook" transform="translate(762.5 938)">
            <path id="Icon" d="M27.4 0H1.6A1.6 1.6 0 0 0 0 1.6v25.8A1.6 1.6 0 0 0 1.6 29h13.9V17.785h-3.775V13.4H15.5v-3.23c0-3.745 2.29-5.785 5.63-5.785a32.1 32.1 0 0 1 3.37.17v3.91h-2.3c-1.82 0-2.175.86-2.175 2.13v2.8h4.35l-.565 4.39H20V29h7.4a1.6 1.6 0 0 0 1.6-1.6V1.6A1.6 1.6 0 0 0 27.4 0z" class="cls-1"/>
        </g>
    </g>
</svg>
