<svg xmlns="http://www.w3.org/2000/svg" width="29" height="29" viewBox="0 0 29 29">
    <defs>
        <style>
            .cls-1{fill:none}.cls-2{clip-path:url(#clip-path)}.cls-3{fill:#fff}
        </style>
        <clipPath id="clip-path">
            <path d="M0 0h29v29H0z" class="cls-1"/>
        </clipPath>
    </defs>
    <g id="Pinterest" transform="translate(-1018.5 -938)">
        <g id="Social_Icons_24px_Pinterest" class="cls-2" data-name="Social Icons – 24px / Pinterest" transform="translate(1018.5 938)">
            <path id="Icon" d="M14.5 0a14.5 14.5 0 0 0-5.285 28.007 13.937 13.937 0 0 1 .05-4.164c.263-1.132 1.7-7.207 1.7-7.207a5.236 5.236 0 0 1-.434-2.153c0-2.016 1.169-3.521 2.624-3.521A1.822 1.822 0 0 1 14.99 13c0 1.244-.792 3.1-1.2 4.828a2.105 2.105 0 0 0 2.147 2.62c2.577 0 4.558-2.717 4.558-6.64a5.724 5.724 0 0 0-6.056-5.9 6.276 6.276 0 0 0-6.547 6.293 5.64 5.64 0 0 0 1.078 3.313.434.434 0 0 1 .1.416c-.11.458-.355 1.443-.4 1.644-.063.265-.21.322-.485.194-1.811-.843-2.943-3.491-2.943-5.617 0-4.574 3.323-8.774 9.58-8.774 5.03 0 8.938 3.584 8.938 8.374 0 5-3.151 9.019-7.524 9.019a3.881 3.881 0 0 1-3.323-1.665s-.727 2.768-.9 3.447a16.2 16.2 0 0 1-1.8 3.8A14.5 14.5 0 1 0 14.5 0" class="cls-3"/>
        </g>
    </g>
</svg>
