<svg xmlns="http://www.w3.org/2000/svg" width="248.193" height="171.182" viewBox="0 0 248.193 171.182">
    <defs>
        <style>
            .cls-1{fill:#e82147}
        </style>
    </defs>
    <g id="Rodapé_elemento_1" transform="rotate(9 10.712 136.109)">
        <path id="Fill_517" d="M85.727 136.951a53.233 53.233 0 0 1-9.6-1.038c-5.718-1.062-11.512-1.934-17.44-2.807a145.332 145.332 0 0 1-15.041-3.017 127.945 127.945 0 0 1-14.6-4.7 82 82 0 0 1-16.984-8.824 33.429 33.429 0 0 1-9.514-9.329 14.442 14.442 0 0 1-2.533-8.589 15.081 15.081 0 0 1 3.33-8.413C6.726 85.788 11.3 83 15.323 80.864a53.425 53.425 0 0 1 12.807-4.789 73.134 73.134 0 0 1 13.557-1.847c5.459-.268 11.012-.284 16.382-.3l2.57-.008a24.637 24.637 0 0 0 5.575-.88c.59-.14 1.2-.285 1.8-.413 4.877-1.035 9.7-2.254 13.363-3.2a21.461 21.461 0 0 0 5.251-1.966 5.529 5.529 0 0 1 1.062-.421 3.5 3.5 0 0 0 1.682-.911.624.624 0 0 1 .49-.218 2.118 2.118 0 0 1 .928.327 1.591 1.591 0 0 0 .722.243c.335 0 .512-.258.525-.766a1.93 1.93 0 0 1 1.743-2.039c.531-.1.956-.214 1.187-.725.029-.067.1-.165.14-.165a1.74 1.74 0 0 0 .181.01 1.965 1.965 0 0 0 1.439-.827 3.681 3.681 0 0 1 .655-.593c.76-.489 1.522-1 2.258-1.5h.005c.966-.652 1.964-1.327 2.971-1.951.706-.439 1.384-.942 2.04-1.429a44.29 44.29 0 0 1 1.375-.994c.118-.081.239-.16.367-.245a7.311 7.311 0 0 0 1.266-.969c.3-.314.633-.6.953-.881.243-.212.493-.43.729-.657a15.836 15.836 0 0 1 2.177-1.664 17.38 17.38 0 0 0 2.021-1.515 34.3 34.3 0 0 0 2.73-2.916 57.392 57.392 0 0 1 1.592-1.788 351.88 351.88 0 0 0 2.452-2.639 92.074 92.074 0 0 1 9.571-9.406 21.806 21.806 0 0 1 6.3-3.541 26.617 26.617 0 0 1 7.1-1.455 25.5 25.5 0 0 0 5.378-1.188c.635-.19 1.292-.386 1.946-.56a34.131 34.131 0 0 0 6.944-2.886 9.271 9.271 0 0 0 2.668-2.49c.2-.24.4-.487.608-.726.644-.743 1.286-1.515 1.906-2.262a38.572 38.572 0 0 1 7.357-7.386c.519-.36 1.046-.73 1.555-1.087l.012-.008a58.691 58.691 0 0 1 8.07-5.037A38.185 38.185 0 0 1 190.976.482a45.333 45.333 0 0 1 6.4-.481 32.672 32.672 0 0 1 12.087 2.192 32.307 32.307 0 0 1 7.683 4.213 32.03 32.03 0 0 1 7.573 8.287 27.107 27.107 0 0 1 3.611 8.285 42.508 42.508 0 0 1 1.207 8.96 37.209 37.209 0 0 1-.516 8.921c-.1.489-.228.991-.353 1.477a20.466 20.466 0 0 0-.456 2.067 28.645 28.645 0 0 1-2.866 8.081l-.178.377c-1.209 2.562-2.641 5.07-4.027 7.5l-.483.847c-.475.834-1.028 1.635-1.563 2.409a23.439 23.439 0 0 0-2.133 3.518 5.718 5.718 0 0 1-1.1 1.451c-.178.189-.362.385-.53.583a6.012 6.012 0 0 0-.8 1.4 7.184 7.184 0 0 1-.663 1.224 247.381 247.381 0 0 0-3.2 4.57 274.494 274.494 0 0 1-2.917 4.173c-2.67 3.723-5 7.74-7.262 11.625-.815 1.4-1.658 2.852-2.5 4.267-.741 1.239-1.482 2.486-2.2 3.692-.6 1.011-1.282 2.158-1.946 3.27a35.393 35.393 0 0 1-2.034 2.934c-.188.252-.4.537-.6.811a10.354 10.354 0 0 1-1.172 1.257c-.267.257-.543.522-.786.79a9.689 9.689 0 0 1-.967.888 4.888 4.888 0 0 0-1.7 2.071 2.43 2.43 0 0 1-1.564 1.506 3.2 3.2 0 0 0-1.138.832 3.163 3.163 0 0 1-1.2.857l-4.636 3.334a13.428 13.428 0 0 1-4.669 2.561c-.286.1-.578.194-.861.284a7.052 7.052 0 0 0-2.864 1.42.913.913 0 0 1-.555.3.488.488 0 0 1-.327-.14.422.422 0 0 0-.275-.122.25.25 0 0 0-.249.216c-.087.429-.264.621-.576.621a1.86 1.86 0 0 1-.557-.123.994.994 0 0 0-.3-.063c-.075 0-.122.02-.142.061-.035.071.02.2.163.383-.095.046-.189.1-.281.144a4.865 4.865 0 0 1-.616.288 135.657 135.657 0 0 1-15.4 4.714 34.04 34.04 0 0 0-4.856 1.632c-1.016.4-2.067.813-3.125 1.153a61.279 61.279 0 0 1-15.188 2.586c-1.375.085-2.775.116-4.129.146-1.722.038-3.5.078-5.232.228-3.172.274-6.4.469-9.524.657s-6.34.382-9.5.656c-3.934.341-7.925.5-12.008.656-.41.016-.829.023-1.249.023zm36.035-8.839c-4.774 0-38.7 1.424-39.964 1.6a17.7 17.7 0 0 0 4.562.555h.052c1.162.035 2.369.052 3.587.052 7.855 0 15.8-.726 23.474-1.427 2.868-.262 5.833-.533 8.753-.762a3.8 3.8 0 0 0-.464-.018zm-26.709-7.294a16.95 16.95 0 0 0-4.338.762c-.537.143-1.092.292-1.642.416.261.019.539.03.826.03a23.163 23.163 0 0 0 5.448-.876c.321-.078.648-.158.971-.234a8.034 8.034 0 0 0-1.265-.098zm10.414-.488a6.076 6.076 0 0 0-3.089.67 16.566 16.566 0 0 1 2.684-.3 15.669 15.669 0 0 0 2.837-.335c-.131 0-.274.007-.434.007-.333 0-.673-.011-1-.021h-.005c-.326-.01-.663-.021-.991-.021zm71.214-6.172l-3.082 1.7-3.082 1.7.1.185.031.055a26.486 26.486 0 0 0 5.15-2.726l.013-.008c.34-.213.691-.434 1.039-.647zm-2.359-1.805a.85.85 0 0 0-.815.4.255.255 0 0 0 0 .234.478.478 0 0 0 .32.275.989.989 0 0 0 .2.021c.453 0 .682-.378.934-.871h-.04a5.074 5.074 0 0 0-.599-.059zm15.712-14.42c-1.3 1.323-2.632 2.655-3.921 3.944-3.611 3.61-7.342 7.341-10.745 11.267 6.01-3.338 10.808-8.313 14.666-15.211zm-178.785 12.9a1.168 1.168 0 0 0-.629.192c.8 1.037 1.36 1.48 1.866 1.48.46 0 .919-.368 1.487-1.195a1.335 1.335 0 0 1-.684.2 2.3 2.3 0 0 1-1.036-.338l-.016-.008a2.215 2.215 0 0 0-.988-.329zm-6.34-7.829a2.066 2.066 0 0 0 .1 1.474l.026.07c.776 2.14 2.247 3.67 4.088 5.447.408.394.632.579.919.579a2.753 2.753 0 0 0 1.088-.425c-1.651-.363-2.817-1.088-3.2-1.988a1.788 1.788 0 0 1 .184-1.688 6.646 6.646 0 0 0-.447-.213c-.41-.185-.873-.394-.947-.621a.2.2 0 0 1 .02-.17.868.868 0 0 0 .166-.687c-.071-.2-.291-.28-.5-.359a1.207 1.207 0 0 1-.332-.161 4.335 4.335 0 0 0-.272-.2 2.072 2.072 0 0 1-.894-1.056zm68.213-3.24c-.254.023-.509.041-.756.059a8.1 8.1 0 0 0-3.433.752h.493a6.214 6.214 0 0 0 3.7-.807zm2.168-1.4a7.172 7.172 0 0 0-3.3.672 3.552 3.552 0 0 1 1.359-.187 3.406 3.406 0 0 0 2.052-.485h-.108zm15.352-.833a5.464 5.464 0 0 0-2.973 1.2l.156-.013a3.632 3.632 0 0 0 2.817-1.187zM18.82 80.608a34.514 34.514 0 0 0-9.828 5.739c3.56-2.259 6.776-4.136 9.828-5.739zm20.426 2.461a2.022 2.022 0 0 0-.808.723c-.02.053-.017.092.011.116a.628.628 0 0 0 .444.169 1.993 1.993 0 0 0 .417-.062l.024-.005a2.276 2.276 0 0 1 .487-.068 1.149 1.149 0 0 1 .295.037.916.916 0 0 0-.48-.422c-.2-.1-.367-.182-.371-.471 0-.012-.006-.017-.019-.017zm7.069-.12a.223.223 0 0 1 .16.077 1.87 1.87 0 0 0 .85.425 2.161 2.161 0 0 1 1.1.608 1.89 1.89 0 0 0-.172-.678c-.08-.2-.149-.376-.093-.495a.271.271 0 0 1 .176-.132.519.519 0 0 1 .159-.029c.222 0 .3.2.391.437a.9.9 0 0 0 .426.573.86.86 0 0 1 .925-.811 1.91 1.91 0 0 1 .3.025 5.823 5.823 0 0 0 .914.071 12.051 12.051 0 0 0 3.52-.711c.433-.134.881-.272 1.325-.388a20.491 20.491 0 0 1 3.314-.542 37.05 37.05 0 0 0 3.873-.638c.589-.119 1.2-.241 1.791-.346a93.984 93.984 0 0 0 6.637-1.443c.35-.088.717-.148 1.073-.205a5.09 5.09 0 0 0 2.64-.959l.041.006.013-.024a2.8 2.8 0 0 0 1.987-.517 1.267 1.267 0 0 0 .325-.948 3.513 3.513 0 0 1-.967.5 2.294 2.294 0 0 0-1.344.964h-.033l-.02.017-.2-.033a7.424 7.424 0 0 0-1.206-.135 2.445 2.445 0 0 0-1.409.4.5.5 0 0 1-.278.078 1.594 1.594 0 0 1-.692-.233 1.257 1.257 0 0 0-.6-.147 1.2 1.2 0 0 0-.85.33 1.088 1.088 0 0 1-.881.368c-.082 0-.165 0-.246-.008h-.035c-.071 0-.144-.007-.216-.007h-.082a2.542 2.542 0 0 1-.365-.035 2.556 2.556 0 0 0-.365-.035 1.05 1.05 0 0 0-.245.027 26.584 26.584 0 0 1-4.379.533c-1.08.071-2.2.144-3.284.318a5.362 5.362 0 0 1-.827.051h-.589a3.252 3.252 0 0 0-1.729.374 1.651 1.651 0 0 0-.3.257c-.161.162-.328.33-.518.33a.368.368 0 0 1-.194-.059c-.186-.113-.109-.273-.02-.459.1-.209.213-.446-.009-.683a3.862 3.862 0 0 1-3.085 1.694h-.1a4.947 4.947 0 0 0-.844.1h-.005a4.939 4.939 0 0 1-.862.1 1.518 1.518 0 0 1-1.43-.9c.258.464.329.789.226 1.022-.094.212-.333.358-.754.458-.524.124-1.066.2-1.589.267-.465.063-.945.127-1.406.227a6.7 6.7 0 0 0-.782.238 3.985 3.985 0 0 1-1.279.3 1.723 1.723 0 0 1-.286-.023 1.372 1.372 0 0 0-.228-.019 2.831 2.831 0 0 0-1.092.305h-.006a2.823 2.823 0 0 1-1.08.3 1.38 1.38 0 0 1-.755-.23.154.154 0 0 0-.084-.022.327.327 0 0 0-.256.16.458.458 0 0 0 0 .459 1.2 1.2 0 0 0 1.067.56 1.063 1.063 0 0 0 .688-.228 1.85 1.85 0 0 1 1.157-.333 1.745 1.745 0 0 0 1.192-.373c.181.323.37.48.579.48a1.146 1.146 0 0 0 .6-.29 2.148 2.148 0 0 1 .38-.24.916.916 0 0 0 .063-.031.391.391 0 0 1 .179-.05zm45.812-2.693a71.86 71.86 0 0 0-8.94 2.423 18.174 18.174 0 0 0 8.94-2.423z" class="cls-1" data-name="Fill 517"/>
    </g>
</svg>
