<svg xmlns="http://www.w3.org/2000/svg" id="Rodapé_elemento_2" width="101.391" height="126.174" viewBox="0 0 101.391 126.174">
    <defs>
        <style>
            .cls-1{fill:#e82147}
        </style>
    </defs>
    <path id="Fill_167" d="M1.408 23.94A175.594 175.594 0 0 1 16.166.21c.62.159.075.546.3.79.352.162.743-.685 1.2.069a1.562 1.562 0 0 1-.123 1.75c-1.541 2.828-3.767 5.216-5.11 8.2-.46 1.02-.661 2.269-1.794 3.063-.7.489-.533 1.725-1.15 2.539-.386.51-.6 1.223-1.03 1.8a15.188 15.188 0 0 0-2.989 7.725c-.051.513-.264.977-.74.993-1.3.043-2.584.581-3.855-.554a2.226 2.226 0 0 1-.747-2.563 27.1 27.1 0 0 1 3.1-6.614c1.433-2.468 3.06-4.819 4.577-7.232C9.849 6.93 12.134 3.865 14.3.714c.206-.3.4-.919.856-.646.34.205-.018.7-.212.994-1.225 1.88-2.537 3.7-3.881 5.5a54.268 54.268 0 0 0-3.442 5.49C5.884 15.077 3.97 18 2.4 21.126a7.991 7.991 0 0 0-.99 2.814" class="cls-1" data-name="Fill 167" transform="translate(13.852)"/>
    <path id="Fill_169" d="M4.583 18.571c-.787.633-1.357-.352-1.606-.552-.673-.541-1.729.017-1.992-.623-.4-.97-1.257-1.79-.9-3.089a66.181 66.181 0 0 1 2.7-7.276 29.621 29.621 0 0 1 2.4-5.084A4.268 4.268 0 0 1 6.949.256a1.891 1.891 0 0 1 2.265.266A18.666 18.666 0 0 1 11.041 1.9c.5.543.9 1.112.308 1.853-.415.519-.34 1.2-.548 1.793-.839 2.38-1.159 4.943-2.5 7.144a42.852 42.852 0 0 0-2.51 5.13c-.22.5-.434 1.1-1.207.751" class="cls-1" data-name="Fill 169" transform="translate(4.052 41.566)"/>
    <path id="Fill_171" d="M11.405 0l-.42.945c.137.179.263.072.4.034.279-.079.374-.613.712-.4.408.258-.117.567-.085.873.447.1.566-.448.93-.463a1.9 1.9 0 0 1-.258 2.348 28.9 28.9 0 0 0-3.5 6.781c-.315.92-1.493 1.369-1.516 2.437a6.215 6.215 0 0 1-1.371 3.5c-1.227 1.673-1.489 3.64-2.219 5.458-.205.512.076 1.142-.429 1.561-.163.135-.42.444-.526.184-.365-.889-1.077-.461-1.667-.608C.359 22.375.144 21.3.037 20.359A8.1 8.1 0 0 1 .9 16.108 79.318 79.318 0 0 1 9.22 1.673C9.726.989 10.18.13 11.405 0" class="cls-1" data-name="Fill 171" transform="translate(46.873 42.313)"/>
    <path id="Fill_173" d="M13.817 1.931c-.253.79-.5 1.617-.783 2.43a111.109 111.109 0 0 1-6.681 14.9 49.186 49.186 0 0 0-2.828 5.6c-.21.566-.589 1.012-1.263.41a1.807 1.807 0 0 0-.606-.281 2.224 2.224 0 0 1-1.508-3.027 17.785 17.785 0 0 1 2.089-4.113A116.687 116.687 0 0 0 11.308.6c.311-.767.4-.766.945-.182a.368.368 0 0 0 .266.1c1.016-.091 1.108.654 1.3 1.412" class="cls-1" data-name="Fill 173" transform="translate(29.158 20.23)"/>
    <path id="Fill_175" d="M8.76 0c-.93 2.289-2.451 4.041-3.337 6.114a43.173 43.173 0 0 0-2.543 6.352c.816-1.793 1.627-3.589 2.448-5.38A57.448 57.448 0 0 1 8.64 1.2C9.23.229 9.892.279 10.556.811a1.308 1.308 0 0 1 .172 2.007 10.042 10.042 0 0 0-2.4 4.394c-.791 2.719-2.182 5.239-2.6 8.078-.1.654-.57 1.212-.667 1.941a3.5 3.5 0 0 0 .255 2.287c.236.444.817 1.028.3 1.523a1.443 1.443 0 0 1-1.745.333 2.518 2.518 0 0 0-1-.06 2.7 2.7 0 0 1-2.826-3.326 30.819 30.819 0 0 1 2.444-7.6A48.789 48.789 0 0 1 7.414 1.16 2.472 2.472 0 0 1 8.76 0" class="cls-1" data-name="Fill 175" transform="translate(0 80.05)"/>
    <path id="Fill_177" d="M2.916 19.023c-2.66-.005-3.461-1.17-2.561-3.376a18.665 18.665 0 0 1 3.056-4.57c2.7-3.324 5.506-6.552 8.495-9.623a5.456 5.456 0 0 1 2.53-1.3c.318-.1 1.027-.288 1-.011-.056.567.512 1.081 0 1.688C13.15 4.539 11.109 7.438 9 10.279c-.932 1.253-1.963 2.434-2.861 3.71-.607.863-1.227 1.8-.612 2.958.074.139.036.5-.03.524-1.05.35-1.685 1.469-2.577 1.551" class="cls-1" data-name="Fill 177" transform="translate(59.398 86.082)"/>
    <path id="Fill_179" d="M4.786 6.873C6.153 5.338 7 3.472 8.349 1.946A15.777 15.777 0 0 0 9.561.621c.56-.8 1.136-.191 1.506.062a.94.94 0 0 1 .142 1.357A38.382 38.382 0 0 0 7.3 9.116c-.753 1.752-2.012 3.284-2.274 5.324a16.125 16.125 0 0 1-.92 2.526c-.391 1.155-1.194.2-1.814.157-.1-.007-.184-.294-.274-.292-.381.005-.606.977-1.053.3C.359 16.219-.288 15.356.136 14a28.206 28.206 0 0 1 2.842-5.978C4.514 5.446 5.93 2.78 8.116.654 8.277.5 8.425.326 8.6.182s.414-.274.6-.092c.242.232.114.512-.1.686C7.253 2.293 6.33 4.482 5.031 6.4a4.4 4.4 0 0 0-.244.473" class="cls-1" data-name="Fill 179" transform="translate(84.718 38)"/>
    <path id="Fill_181" d="M12.938 2.344a15.821 15.821 0 0 0 1.7-1.632A1.526 1.526 0 0 1 16.6.152c.468.186.368.676.323.989a2.065 2.065 0 0 1-1.371 1.711c-.186.068-.466-.072-.466.264 0 1.643-1.437 2.518-2.056 3.834-.19.4-.544.787-.794 1.2-.728 1.208-1.324 2.521-2.867 2.983-.36.108-.929.43-.735.976.593 1.666-.574 2.779-1.237 4.015C6.31 18.155 4.929 20.02 3.92 22.1c-.114.234-.184.568-.512.487-.409-.1.133-.465-.151-.678-.509.271-.957 1-1.667.14-.253-.309-.626.213-.808.541-.139.249-.291.483-.6.3-.378-.222-.052-.453.048-.657a84.745 84.745 0 0 1 6.4-10.552l6.16-8.974.154-.362" class="cls-1" data-name="Fill 181" transform="translate(30.844 80.652)"/>
    <path id="Fill_183" d="M4 12.683a.049.049 0 0 1-.044-.019c-.035-.05.014-.191.062-.327s.1-.278.062-.326a.049.049 0 0 0-.042-.019 1.146 1.146 0 0 0-.457.273.239.239 0 0 1-.091.049h-.007a1.533 1.533 0 0 0-.932-.382 1.456 1.456 0 0 0-1.035.534.051.051 0 0 1-.039.014 3.976 3.976 0 0 1-1.47-1.742 3.575 3.575 0 0 1 .412-1.851A23.026 23.026 0 0 1 7.226.777 3.6 3.6 0 0 1 9.418 0a4.683 4.683 0 0 1 2.194.62c.375.2.574.42.608.668.037.268-.119.566-.478.912a28.48 28.48 0 0 0-1.984 2.125c-.28.332-.546.682-.8 1.021a16.754 16.754 0 0 1-1.316 1.585 8.017 8.017 0 0 0-1.434 2.395 14.248 14.248 0 0 1-.723 1.455l-.146.247a5.171 5.171 0 0 1-1.3 1.649.152.152 0 0 1-.039.006zm1.506-8.716a12.612 12.612 0 0 0-3.929 5.752c1.345-2.082 2.571-3.951 3.929-5.752z" class="cls-1" data-name="Fill 183" transform="translate(62.09 60.117)"/>
    <path id="Fill_185" d="M7.476 0l-.417 1.424c.253-.2.407-.255.453-.361C7.889.2 8.581.424 9.127.7a1.188 1.188 0 0 1 .5 1.552 17.874 17.874 0 0 1-1.358 2.757 22.787 22.787 0 0 0-2.086 3.658c-.528 1.364-1.3 2.692-.969 4.3a.784.784 0 0 1-1.168.892 2.178 2.178 0 0 0-1.085-.131c-2.354.118-3.57-1.552-2.655-3.8a32.826 32.826 0 0 1 5.537-8.455c.414-.5.7-1.16 1.634-1.473" class="cls-1" data-name="Fill 185" transform="translate(91.657 74.741)"/>
    <path id="Fill_187" d="M1.205 20.885c-.014.846.7 1.257.8 1.932C.96 22.959.3 22.394.075 21.229a4.772 4.772 0 0 1 .763-3.439c1.31-2.146 2.4-4.415 4.232-6.268.716-.725 1.211-1.9 1.907-2.775 1.984-2.5 4.056-4.933 6.1-7.385A5.346 5.346 0 0 1 14.54.136a.69.69 0 0 1 .84.014.579.579 0 0 1 .1.813 9.608 9.608 0 0 1-.752 1.253c-2.765 3.513-5.6 6.969-8.291 10.54A16.612 16.612 0 0 0 4 17.415a5.757 5.757 0 0 0 .107 2.43c.024.221.332.522-.059.688-.751.319-1.38.634-.719 1.612.15.222-.191.34-.429.345-.425.01-.914 0-.964-.525-.046-.485-.32-.731-.734-1.08" class="cls-1" data-name="Fill 187" transform="translate(12.104 103.335)"/>
    <path id="Fill_189" d="M7.844 3.463c-.244-.173-.38-.206-.487.053a23 23 0 0 1-1.217 2.8c-.306.529-.24 1.621-1.412 1.3-.186-.051-.148.184-.064.317.2.311.075.538-.139.8a1.832 1.832 0 0 0-.371 1.55c.176 1.127-.608 1.677-1.64 1.214-.124-.056-.344-.244-.355-.166C1.9 13.174.9 10.738.494 11.628a1.345 1.345 0 0 1-.483-.975 4.207 4.207 0 0 1 .718-2.444A31.859 31.859 0 0 1 6.992.81a4.96 4.96 0 0 1 2.16-.784C9.584-.1 9.839.257 10 .6c.224.469-.023.518-.406.393a4.066 4.066 0 0 1-1.051 2.061c-.2.281-.328.621-.7.409" class="cls-1" data-name="Fill 189" transform="translate(23.469 63.068)"/>
    <path id="Fill_191" d="M.077 22.5a5.087 5.087 0 0 1 .015-1.8 7.06 7.06 0 0 0 .086-1.219.875.875 0 0 0 .014-.1 4.264 4.264 0 0 0 1.08-1.789c.107-.27.217-.549.349-.811a3.756 3.756 0 0 0 .19-.487 2.638 2.638 0 0 1 .283-.645c.752-1.106 1.457-2.268 2.139-3.391a55.955 55.955 0 0 1 3.094-4.727c.591-.782 1.166-1.6 1.721-2.386.881-1.25 1.791-2.543 2.792-3.737.052-.062.1-.125.156-.189A4.545 4.545 0 0 1 13.352 0l-.907 1.643-.657 1.189c.009-.028.019-.06.031-.105a7.835 7.835 0 0 0-1.657 2.05A10.557 10.557 0 0 1 9 6.377a.456.456 0 0 0 .281.132.37.37 0 0 0 .225-.1.383.383 0 0 1 .143-.081.553.553 0 0 1 .11-.012c.207 0 .373.133.491.4l.019.04c.041.087.087.184.054.253a.144.144 0 0 1-.1.071c-.736.189-.722.722-.708 1.237 0 .108.006.22 0 .325a1.5 1.5 0 0 1-.892 1.3 2 2 0 0 0-1.166 2.03l-.412.611a5.059 5.059 0 0 0-1.994 3.33.8.8 0 0 0-.478.3.767.767 0 0 1-.5.3.58.58 0 0 1-.329-.122 4.148 4.148 0 0 1-.76 2.675 7.493 7.493 0 0 0-.651 1.387c-.009.029-.035.043-.08.043a.8.8 0 0 1-.166-.028h-.01a.857.857 0 0 0-.18-.03.113.113 0 0 0-.1.041c-.033.048-.02.141.037.282a.526.526 0 0 0 .494.309.68.68 0 0 0 .455-.186 1.605 1.605 0 0 0-.2.5c-.106.4-.216.806-.935.852h-.125a.561.561 0 0 1-.414-.118.574.574 0 0 1-.081-.431v-.157c-.338.031-.426.252-.519.485-.082.206-.167.418-.437.491zm3.274-6.688c-.114 0-.26.126-.473.41a4.052 4.052 0 0 0-.572 1.306 3.321 3.321 0 0 1-.751 1.5.239.239 0 0 0-.078.2.251.251 0 0 0 .128.182.361.361 0 0 0 .186.058.247.247 0 0 0 .245-.227 3.58 3.58 0 0 1 .547-1.263 4.094 4.094 0 0 0 .5-1.065c.09-.352.18-.6.522-.6a.768.768 0 0 1 .077 0c-.105-.29-.19-.5-.334-.5zm3.079-5.39l-.346.547c-.411.649-.837 1.321-1.244 1.988l-.007.012a.388.388 0 0 0-.083.264.184.184 0 0 0 .091.112.412.412 0 0 0 .2.057.167.167 0 0 0 .18-.118 4.075 4.075 0 0 1 .743-1.329 4.053 4.053 0 0 0 .741-1.327l-.221-.164z" class="cls-1" data-name="Fill 191" transform="translate(58.18 9.712)"/>
    <path id="Fill_193" d="M.822 9.083a2.435 2.435 0 0 0 .15 1.751c.106.288.187.507-.159.627-.315.109-.509-.112-.621-.353a2.684 2.684 0 0 1-.044-1.881A16.189 16.189 0 0 1 3.5 3.294a12.74 12.74 0 0 0 1.313-1.579A4.337 4.337 0 0 1 7.541.024c.478-.156.57.485.668.83a.8.8 0 0 1-.266.7C6.243 2.667 5.968 4.74 4.814 6.23c-.38.491-.206 1.487-.7 2.139-.388.515-.6 1.159-1.319 1.4-.416.141-.1.677-.289 1-.1.164-.156.36-.361.387s-.463-.148-.426-.279c.248-.879-.79-1.1-.9-1.791" class="cls-1" data-name="Fill 193" transform="translate(85.759 96.594)"/>
    <path id="Fill_195" d="M13.933 2.626l-.154.362A28.077 28.077 0 0 0 9.91 7.473c-1.61 2.174-3.065 4.47-4.466 6.786-1.186 1.96-2.7 3.722-3.53 5.906a4.475 4.475 0 0 1-1.875 2.3c-.23-1.335.62-2.189 1.11-3.13A62.9 62.9 0 0 1 5.673 12.3c2.893-4.108 5.61-8.36 9.215-11.924.206-.2.371-.484.867-.333-.324 1.079-1.359 1.646-1.822 2.583" class="cls-1" data-name="Fill 195" transform="translate(29.85 80.37)"/>
    <path id="Fill_197" d="M.984 6.659c-.444.325.079 1.2-.6 1.06C-.2 7.6.014 6.891.159 6.442A10.37 10.37 0 0 1 5.417.269c.39-.2.956-.515 1.317.062.321.512-.175.823-.458 1.143a9.19 9.19 0 0 0-2.607 4.567c-.074.465-.451.633-.836.79a1.01 1.01 0 0 0-.364.253c-.753.856-1.32.946-1.484-.426" class="cls-1" data-name="Fill 197" transform="translate(86.581 60.59)"/>
    <path id="Fill_199" d="M4.379 0c-.124 1.382-1.306 2.145-1.948 3.221A8.3 8.3 0 0 1 .807 5.555c-.189.157-.265.5-.577.329a.46.46 0 0 1-.13-.69A45.067 45.067 0 0 1 3.3.5c.283-.341.732-.332 1.112-.473z" class="cls-1" data-name="Fill 199" transform="translate(59.961 17.452)"/>
    <path id="Fill_201" d="M.183 7.05c-.141-.306-.305-.591-.048-.94A61.345 61.345 0 0 1 4.7.329c.13-.139.2-.469.5-.263.187.131.14.333.012.5-1.649 2.085-3.249 4.2-4.747 6.4-.043.059-.207.034-.314.056z" class="cls-1" data-name="Fill 201" transform="translate(64.189 10.43)"/>
    <path id="Fill_203" d="M1.14 4.844a.656.656 0 0 1-.014.1c-.2.5-.634.912-.6 1.514.013.215.042.519-.285.491-.292-.025-.253-.3-.227-.528A21.847 21.847 0 0 1 1.723.55c.134-.325.525-.673.883-.507.423.2.1.616-.046.861a13.954 13.954 0 0 0-1.42 3.94" class="cls-1" data-name="Fill 203" transform="translate(57.232 24.25)"/>
    <path id="Fill_205" d="M.77 1.877a.787.787 0 0 1-.031.1C1.215 1.5 2.044 1.354 2.124.461c.013-.147.389-.687.768-.354.361.316-.024.65-.233.847A7.5 7.5 0 0 0 .538 4.212C.176 3.789-.366 3.512.355 3c.387-.276.232-.764.415-1.122" class="cls-1" data-name="Fill 205" transform="translate(69.226 10.567)"/>
    <path id="Fill_207" d="M.3 1L.714.39l.5-.39.174.121L.244 2.154 0 2.074.3 1" class="cls-1" data-name="Fill 207" transform="translate(64.919 21.289)"/>
    <path id="Fill_209" d="M.05 3.624c-.221-.778.35-1.295.643-1.895S1.324.576 1.643 0a.91.91 0 0 1-.077.839C1.043 1.757.553 2.694.05 3.624" class="cls-1" data-name="Fill 209" transform="translate(61.352 26.376)"/>
</svg>
