<svg xmlns="http://www.w3.org/2000/svg" width="14" height="16" viewBox="0 0 14 16">
    <defs>
        <style>
            .cls-1{fill:#d6d6d6;fill-rule:evenodd}
        </style>
    </defs>
    <g id="Senha" transform="translate(-448 -968)">
        <path id="Caminho_157" d="M7 8a2 2 0 1 1-2 2 2.006 2.006 0 0 1 2-2zm0-6a2.006 2.006 0 0 0-2 2h4a2.006 2.006 0 0 0-2-2zm5 14H2a2.006 2.006 0 0 1-2-2V6a2.006 2.006 0 0 1 2-2h1a4 4 0 0 1 8 0h1a2.006 2.006 0 0 1 2 2v8a2.006 2.006 0 0 1-2 2z" class="cls-1" data-name="Caminho 157" transform="translate(448 968)"/>
    </g>
</svg>
