<svg xmlns="http://www.w3.org/2000/svg" width="17.998" height="18" viewBox="0 0 17.998 18">
    <path d="M13.77 18a2.438 2.438 0 0 1-.775-.126h-.022a22.616 22.616 0 0 1-7.836-5.015A21.536 21.536 0 0 1 .128 5.014a.019.019 0 0 1 0-.014.02.02 0 0 0 0-.011 2.169 2.169 0 0 1 .582-2.33l-.022-.022L2.848.41l.021-.021.043-.022a1.586 1.586 0 0 1 2.03 0l.043.022.022.021L7.77 3.263l.065.065-.022.022a1.435 1.435 0 0 1 .458 1.033 1.5 1.5 0 0 1-.436 1.085L6.453 6.851a8.635 8.635 0 0 0 1.922 2.81 11.089 11.089 0 0 0 2.825 1.945l1.382-1.382a1.57 1.57 0 0 1 2.159 0l.022.043 2.806 2.809a1.555 1.555 0 0 1 0 2.14L15.391 17.4a2.489 2.489 0 0 1-1.621.6zM3.927 1.383a.24.24 0 0 0-.151.065L1.682 3.587l-.043.043a.877.877 0 0 0-.216.908 20.437 20.437 0 0 0 4.684 7.348 20.936 20.936 0 0 0 7.319 4.668 1.227 1.227 0 0 0 .394.07 1 1 0 0 0 .663-.265l2.117-2.116.047-.045c.028-.026.042-.039.042-.052s-.014-.026-.041-.052l-.048-.046-2.828-2.831-.027-.027c-.04-.041-.061-.062-.081-.062s-.04.021-.081.062l-.027.027-2.056 2.054-.432-.2a14.028 14.028 0 0 1-3.5-2.269l-.151-.13a11.287 11.287 0 0 1-2.453-3.713l-.151-.432.324-.3L6.863 4.5a.138.138 0 0 0 .044-.149l-.065-.067-2.764-2.836a.24.24 0 0 0-.151-.065z"/>
</svg>
