<svg xmlns="http://www.w3.org/2000/svg" width="31" height="25.207" viewBox="0 0 31 25.207">
    <defs>
        <style>
            .cls-1{fill:none}.cls-2{clip-path:url(#clip-path)}.cls-3{fill:#fff}
        </style>
        <clipPath id="clip-path">
            <path d="M0 0h31v25.207H0z" class="cls-1"/>
        </clipPath>
    </defs>
    <g id="Twitter" transform="translate(-889.5 -940.011)">
        <g id="Social_Icons_24px_Twitter" class="cls-2" data-name="Social Icons – 24px / Twitter" transform="translate(889.5 940.011)">
            <path id="Icon" d="M9.738 25.207c11.7 0 18.1-9.7 18.1-18.1 0-.273 0-.546-.012-.819A12.959 12.959 0 0 0 31 2.99a12.892 12.892 0 0 1-3.659 1 6.4 6.4 0 0 0 2.8-3.523A12.653 12.653 0 0 1 26.1 2.01a6.363 6.363 0 0 0-11 4.354 7.031 7.031 0 0 0 .161 1.451A18.063 18.063 0 0 1 2.146 1.166a6.387 6.387 0 0 0 1.972 8.5A6.434 6.434 0 0 1 1.24 8.87v.087a6.374 6.374 0 0 0 5.1 6.24 6.4 6.4 0 0 1-2.866.112 6.361 6.361 0 0 0 5.942 4.416 12.758 12.758 0 0 1-7.9 2.729A12.241 12.241 0 0 1 0 22.366a18.094 18.094 0 0 0 9.738 2.841" class="cls-3"/>
        </g>
    </g>
</svg>
